<svg width="65" height="65" viewBox="0 0 65 65" fill="none" xmlns="http://www.w3.org/2000/svg">
<path d="M45.4008 34.1777C45.2352 34.1777 45.0699 34.1647 44.9063 34.1387L43.043 33.8449C42.9858 33.8372 42.9307 33.8181 42.881 33.7888C42.8312 33.7595 42.7879 33.7205 42.7534 33.6742C42.7189 33.6279 42.694 33.5752 42.6802 33.5191C42.6664 33.4631 42.6639 33.4048 42.6729 33.3478C42.6819 33.2908 42.7023 33.2362 42.7327 33.1871C42.7631 33.138 42.803 33.0955 42.8501 33.0621C42.8971 33.0287 42.9504 33.005 43.0068 32.9925C43.0631 32.9799 43.1214 32.9788 43.1782 32.989L45.0415 33.2828C46.0382 33.4406 46.9863 32.9466 47.1579 32.1839L48.5801 25.6878C48.61 25.5386 48.6087 25.3848 48.5763 25.2361C48.5439 25.0875 48.4812 24.9471 48.3921 24.8237C48.2394 24.6197 48.0471 24.4485 47.8267 24.3205C47.6063 24.1926 47.3623 24.1103 47.1094 24.0788L45.5399 23.8327C45.4825 23.8252 45.4273 23.8063 45.3773 23.777C45.3274 23.7478 45.2838 23.7089 45.2492 23.6626C45.2146 23.6162 45.1895 23.5635 45.1756 23.5073C45.1617 23.4512 45.1592 23.3928 45.1682 23.3357C45.1772 23.2785 45.1975 23.2238 45.228 23.1746C45.2585 23.1254 45.2985 23.0829 45.3457 23.0495C45.3929 23.016 45.4464 22.9924 45.5029 22.9799C45.5593 22.9674 45.6178 22.9664 45.6746 22.9769L47.2442 23.2243C47.6137 23.2741 47.9693 23.3982 48.2896 23.5891C48.6098 23.7801 48.8881 24.0339 49.1075 24.3354C49.2636 24.556 49.3726 24.8064 49.4277 25.071C49.4828 25.3356 49.4828 25.6087 49.4277 25.8733L48.0051 32.3733C47.7655 33.4349 46.6509 34.1777 45.4008 34.1777ZM19.5966 34.1777C18.3473 34.1777 17.2324 33.4354 16.9966 32.3737L15.5731 25.8737C15.5181 25.6088 15.5181 25.3355 15.5732 25.0706C15.6283 24.8057 15.7373 24.555 15.8934 24.3341C16.1129 24.0328 16.3912 23.7791 16.7115 23.5882C17.0317 23.3973 17.3872 23.2733 17.7567 23.2234L19.3262 22.976C19.3829 22.9665 19.4409 22.9684 19.4968 22.9815C19.5527 22.9947 19.6055 23.0188 19.652 23.0525C19.6985 23.0862 19.7379 23.1288 19.7678 23.1778C19.7977 23.2269 19.8175 23.2814 19.8262 23.3382C19.8348 23.395 19.8321 23.4529 19.8181 23.5086C19.8042 23.5644 19.7793 23.6168 19.7449 23.6628C19.7105 23.7088 19.6673 23.7475 19.6179 23.7767C19.5684 23.8059 19.5136 23.8249 19.4567 23.8327L17.8867 24.0806C17.6338 24.112 17.3899 24.1942 17.1696 24.3222C16.9493 24.4502 16.757 24.6214 16.6045 24.8255C16.5149 24.9491 16.4519 25.0899 16.4195 25.2391C16.3872 25.3883 16.3861 25.5425 16.4164 25.6921L17.839 32.1891C18.0098 32.95 18.9575 33.4436 19.9546 33.2859L21.8179 32.9921C21.8747 32.9818 21.933 32.983 21.9893 32.9955C22.0457 33.0081 22.099 33.0317 22.146 33.0652C22.1931 33.0986 22.233 33.1411 22.2634 33.1901C22.2939 33.2392 22.3142 33.2938 22.3232 33.3509C22.3322 33.4079 22.3297 33.4661 22.3159 33.5222C22.3021 33.5782 22.2772 33.631 22.2427 33.6773C22.2083 33.7236 22.1649 33.7625 22.1151 33.7918C22.0654 33.8211 22.0103 33.8402 21.9531 33.8479L20.0898 34.1417C19.9266 34.1666 19.7617 34.1786 19.5966 34.1777Z" fill="#005F5C"/>
<path d="M17.3013 32.1777C17.2845 32.1777 17.2677 32.1768 17.251 32.1751C16.7041 32.1438 16.1803 31.9437 15.7518 31.6022C15.3234 31.2607 15.0115 30.7947 14.859 30.2684L14.4534 28.4172C14.232 27.3959 14.8161 26.3628 15.9077 25.8463C16.0115 25.7979 16.1302 25.7925 16.238 25.8314C16.3457 25.8703 16.4337 25.9502 16.4826 26.0537C16.5316 26.1573 16.5376 26.276 16.4993 26.3839C16.461 26.4919 16.3815 26.5802 16.2782 26.6297C15.9574 26.7462 15.6857 26.9685 15.508 27.2599C15.3302 27.5513 15.2569 27.8945 15.3002 28.2331L15.7058 30.0838C15.8204 30.4331 16.0396 30.7386 16.3337 30.959C16.6278 31.1795 16.9825 31.3042 17.3498 31.3162C17.4593 31.3293 17.5598 31.3835 17.6307 31.468C17.7015 31.5525 17.7376 31.6608 17.7314 31.7709C17.7252 31.881 17.6773 31.9846 17.5974 32.0606C17.5174 32.1365 17.4116 32.1792 17.3013 32.1799V32.1777ZM48.5156 24.7326C48.4007 24.7326 48.2905 24.687 48.2092 24.6057C48.1279 24.5244 48.0823 24.4142 48.0823 24.2993V19.738C48.0823 11.4501 41.3808 5.19967 32.494 5.19967C23.6072 5.19967 16.9143 11.4501 16.9143 19.738V24.2993C16.9143 24.4142 16.8687 24.5244 16.7874 24.6057C16.7062 24.687 16.5959 24.7326 16.481 24.7326C16.3661 24.7326 16.2559 24.687 16.1746 24.6057C16.0933 24.5244 16.0477 24.4142 16.0477 24.2993V19.738C16.0477 10.9556 23.1179 4.33301 32.494 4.33301C41.87 4.33301 48.9489 10.9556 48.9489 19.738V24.2993C48.9489 24.4142 48.9033 24.5244 48.822 24.6057C48.7407 24.687 48.6305 24.7326 48.5156 24.7326Z" fill="#005F5C"/>
<path d="M46.8087 24.0237C46.6937 24.0237 46.5835 23.978 46.5022 23.8968C46.421 23.8155 46.3753 23.7053 46.3753 23.5904V19.7376C46.3753 12.4225 40.4079 6.90573 32.4939 6.90573C24.58 6.90573 18.6212 12.4225 18.6212 19.7376V23.5904C18.6212 23.7053 18.5755 23.8155 18.4943 23.8968C18.413 23.978 18.3028 24.0237 18.1878 24.0237C18.0729 24.0237 17.9627 23.978 17.8814 23.8968C17.8002 23.8155 17.7545 23.7053 17.7545 23.5904V19.7376C17.7545 11.9285 24.0912 6.03906 32.4939 6.03906C40.8967 6.03906 47.242 11.9285 47.242 19.7376V23.5904C47.242 23.7053 47.1963 23.8155 47.1151 23.8968C47.0338 23.978 46.9236 24.0237 46.8087 24.0237ZM40.6081 37.0428H34.5271C34.4122 37.0428 34.302 36.9971 34.2207 36.9158C34.1394 36.8346 34.0938 36.7244 34.0938 36.6094C34.0938 36.4945 34.1394 36.3843 34.2207 36.303C34.302 36.2218 34.4122 36.1761 34.5271 36.1761H40.6081C41.4086 36.1732 42.1924 35.9465 42.8709 35.5217C43.5494 35.0969 44.0956 34.4908 44.4479 33.772C44.4981 33.6685 44.5873 33.5893 44.696 33.5517C44.8046 33.514 44.9238 33.5211 45.0272 33.5713C45.1307 33.6216 45.2099 33.7108 45.2475 33.8195C45.2852 33.9281 45.2781 34.0473 45.2279 34.1507C44.804 35.0155 44.1468 35.7447 43.3305 36.2557C42.5142 36.7668 41.5712 37.0394 40.6081 37.0428Z" fill="#005F5C"/>
<path d="M33.03 38.5406C32.6481 38.5407 32.2747 38.4275 31.9571 38.2154C31.6395 38.0032 31.392 37.7017 31.2457 37.3489C31.0995 36.9961 31.0612 36.6078 31.1357 36.2332C31.2101 35.8586 31.394 35.5145 31.664 35.2444C31.9341 34.9743 32.2781 34.7904 32.6527 34.7158C33.0273 34.6413 33.4155 34.6795 33.7684 34.8257C34.1213 34.9718 34.4229 35.2193 34.635 35.5368C34.8472 35.8544 34.9605 36.2277 34.9605 36.6096C34.9599 37.1215 34.7564 37.6123 34.3945 37.9742C34.0326 38.3362 33.5419 38.5399 33.03 38.5406ZM33.03 35.5458C32.8195 35.5457 32.6136 35.6081 32.4386 35.725C32.2635 35.8419 32.127 36.0081 32.0464 36.2026C31.9658 36.3971 31.9447 36.6111 31.9857 36.8176C32.0268 37.0241 32.1281 37.2138 32.277 37.3626C32.4259 37.5115 32.6156 37.6129 32.822 37.6539C33.0285 37.695 33.2426 37.6739 33.437 37.5933C33.6315 37.5126 33.7977 37.3762 33.9147 37.2011C34.0316 37.026 34.0939 36.8202 34.0938 36.6096C34.0934 36.3276 33.9811 36.0573 33.7817 35.8579C33.5823 35.6585 33.312 35.5463 33.03 35.5458Z" fill="#005F5C"/>
<path d="M32.4999 41.4123C24.8988 41.4123 18.9448 33.0879 18.9448 22.4613C18.9448 16.178 24.7415 9.14844 32.4999 9.14844C40.2583 9.14844 46.055 16.1771 46.055 22.4613C46.0542 33.0879 40.0997 41.4123 32.4999 41.4123ZM32.4999 10.0151C25.2377 10.0151 19.8115 16.5862 19.8115 22.4613C19.8115 32.6013 25.385 40.5456 32.4999 40.5456C39.6148 40.5456 45.1884 32.6022 45.1884 22.4613C45.1875 16.5862 39.7613 10.0151 32.4999 10.0151Z" fill="#005F5C"/>
<path d="M42.5967 23.1829C37.8621 23.1829 33.3103 21.1705 31.0973 17.9244C28.3777 19.9511 23.6908 23.2093 19.37 20.7995C19.2696 20.7436 19.1956 20.65 19.1641 20.5395C19.1327 20.4289 19.1465 20.3104 19.2025 20.21C19.2585 20.1096 19.352 20.0356 19.4626 20.0042C19.5732 19.9727 19.6917 19.9865 19.792 20.0425C23.8264 22.2911 28.4609 18.8162 30.9508 16.9498C30.9993 16.9135 31.0548 16.8877 31.1139 16.8742C31.1729 16.8607 31.2342 16.8597 31.2936 16.8713C31.3531 16.8829 31.4094 16.9068 31.459 16.9415C31.5087 16.9763 31.5505 17.021 31.5817 17.0729C33.9464 20.9898 39.9451 23.1231 45.539 22.0341C45.6508 22.0146 45.7658 22.0398 45.8592 22.1042C45.9527 22.1686 46.0172 22.267 46.0388 22.3784C46.0604 22.4899 46.0375 22.6053 45.9749 22.7C45.9123 22.7947 45.8151 22.861 45.7041 22.8847C44.6802 23.0836 43.6396 23.1834 42.5967 23.1829ZM54.7677 60.6614H10.2323C10.1174 60.6614 10.0071 60.6158 9.92587 60.5345C9.8446 60.4533 9.79895 60.343 9.79895 60.2281V52.3986C9.79895 46.4966 14.2055 41.6953 19.6222 41.6953H20.4481C21.5399 41.7041 22.6121 41.4052 23.5417 40.8326C24.4714 40.2601 25.221 39.4372 25.7045 38.4583C25.7296 38.4073 25.7646 38.3617 25.8074 38.3242C25.8502 38.2866 25.9 38.2579 25.9539 38.2396C26.0078 38.2213 26.0648 38.2138 26.1216 38.2176C26.1784 38.2213 26.2339 38.2362 26.2849 38.2614C26.3359 38.2865 26.3815 38.3215 26.4191 38.3643C26.4566 38.4071 26.4853 38.4569 26.5036 38.5108C26.5219 38.5647 26.5294 38.6217 26.5256 38.6785C26.5219 38.7353 26.507 38.7908 26.4819 38.8418C25.9271 39.9661 25.0669 40.9113 23.9998 41.5692C22.9326 42.2272 21.7017 42.5712 20.4481 42.562H19.6222C14.6822 42.562 10.6656 46.975 10.6656 52.3986V59.7948H54.3344V52.3986C54.3344 46.9742 50.3165 42.562 45.3778 42.562H44.5518C43.2982 42.5712 42.0673 42.2272 41.0002 41.5692C39.9331 40.9113 39.0729 39.9661 38.5181 38.8418C38.4929 38.7908 38.4781 38.7353 38.4743 38.6785C38.4706 38.6217 38.4781 38.5647 38.4964 38.5108C38.5147 38.4569 38.5434 38.4071 38.5809 38.3643C38.6184 38.3215 38.664 38.2865 38.7151 38.2614C38.7661 38.2362 38.8216 38.2213 38.8784 38.2176C38.9352 38.2138 38.9922 38.2213 39.0461 38.2396C39.1 38.2579 39.1498 38.2866 39.1925 38.3242C39.2353 38.3617 39.2703 38.4073 39.2955 38.4583C39.779 39.4372 40.5286 40.2601 41.4582 40.8326C42.3879 41.4052 43.4601 41.7041 44.5518 41.6953H45.3778C50.7945 41.6953 55.201 46.4975 55.201 52.3986V60.2281C55.201 60.343 55.1554 60.4533 55.0741 60.5345C54.9928 60.6158 54.8826 60.6614 54.7677 60.6614Z" fill="#005F5C"/>
<path d="M18.5262 60.6664C18.4113 60.6664 18.3011 60.6208 18.2198 60.5395C18.1386 60.4582 18.0929 60.348 18.0929 60.2331V52.5046C18.0929 52.3897 18.1386 52.2794 18.2198 52.1982C18.3011 52.1169 18.4113 52.0712 18.5262 52.0712C18.6412 52.0712 18.7514 52.1169 18.8326 52.1982C18.9139 52.2794 18.9596 52.3897 18.9596 52.5046V60.2331C18.9596 60.348 18.9139 60.4582 18.8326 60.5395C18.7514 60.6208 18.6412 60.6664 18.5262 60.6664ZM46.4715 60.6664C46.3565 60.6664 46.2463 60.6208 46.1651 60.5395C46.0838 60.4582 46.0381 60.348 46.0381 60.2331V52.5046C46.0381 52.3897 46.0838 52.2794 46.1651 52.1982C46.2463 52.1169 46.3565 52.0712 46.4715 52.0712C46.5864 52.0712 46.6966 52.1169 46.7779 52.1982C46.8591 52.2794 46.9048 52.3897 46.9048 52.5046V60.2331C46.9048 60.348 46.8591 60.4582 46.7779 60.5395C46.6966 60.6208 46.5864 60.6664 46.4715 60.6664ZM27.9564 49.3997C27.8928 49.3997 27.83 49.3857 27.7724 49.3587C27.7148 49.3316 27.6639 49.2923 27.6232 49.2433L21.7567 42.1917C21.6861 42.103 21.653 41.9903 21.6645 41.8775C21.6761 41.7648 21.7313 41.661 21.8184 41.5885C21.9056 41.516 22.0176 41.4805 22.1306 41.4897C22.2435 41.4988 22.3484 41.5519 22.4228 41.6374L28.0392 48.387L31.7156 45.917L24.2493 41.0425C24.153 40.9796 24.0857 40.8811 24.0621 40.7686C24.0385 40.6561 24.0605 40.5388 24.1234 40.4425C24.1862 40.3463 24.2848 40.2789 24.3973 40.2553C24.5098 40.2317 24.6271 40.2538 24.7233 40.3166L32.737 45.5483C32.7968 45.5874 32.8461 45.6407 32.8804 45.7035C32.9146 45.7663 32.9328 45.8367 32.9333 45.9082C32.9337 45.9797 32.9165 46.0503 32.8831 46.1135C32.8497 46.1767 32.8011 46.2307 32.7417 46.2706L28.1978 49.3248C28.1266 49.3732 28.0425 49.3993 27.9564 49.3997Z" fill="#005F5C"/>
<path d="M37.0435 49.3998C36.9575 49.3997 36.8735 49.3741 36.8022 49.3261L32.2587 46.272C32.1993 46.2321 32.1507 46.1782 32.1172 46.1149C32.0838 46.0517 32.0665 45.9812 32.0669 45.9096C32.0673 45.8381 32.0855 45.7678 32.1197 45.705C32.1539 45.6422 32.2031 45.5888 32.263 45.5496L40.2766 40.3167C40.3729 40.2538 40.4902 40.2318 40.6027 40.2554C40.7152 40.279 40.8137 40.3463 40.8766 40.4426C40.9394 40.5388 40.9615 40.6561 40.9379 40.7686C40.9143 40.8811 40.8469 40.9797 40.7507 41.0425L33.2848 45.9162L36.9608 48.3862L42.5772 41.6375C42.6131 41.5924 42.6577 41.5549 42.7083 41.5273C42.759 41.4996 42.8146 41.4823 42.872 41.4765C42.9293 41.4706 42.9873 41.4763 43.0425 41.4931C43.0977 41.5099 43.1489 41.5376 43.1932 41.5745C43.2376 41.6114 43.2741 41.6567 43.3007 41.7079C43.3272 41.7591 43.3433 41.8151 43.348 41.8726C43.3526 41.9301 43.3458 41.9879 43.3278 42.0427C43.3098 42.0975 43.281 42.1482 43.2432 42.1917L37.3768 49.2421C37.3362 49.2912 37.2853 49.3309 37.2277 49.3581C37.1701 49.3854 37.1072 49.3996 37.0435 49.3998ZM47.697 32.1778C47.5867 32.1773 47.4808 32.1347 47.4008 32.0587C47.3208 31.9828 47.2728 31.8792 47.2666 31.769C47.2603 31.6589 47.2963 31.5505 47.3672 31.466C47.4381 31.3815 47.5385 31.3272 47.6481 31.3142C48.0157 31.3025 48.3709 31.178 48.6655 30.9577C48.96 30.7373 49.1797 30.4317 49.2947 30.0822L49.6999 28.2302C49.7433 27.8916 49.6701 27.5483 49.4923 27.2568C49.3145 26.9654 49.0428 26.7432 48.7219 26.6268C48.6186 26.5773 48.5391 26.4889 48.5008 26.381C48.4625 26.2731 48.4685 26.1544 48.5174 26.0508C48.5664 25.9473 48.6544 25.8673 48.7621 25.8285C48.8698 25.7896 48.9886 25.7949 49.0924 25.8434C50.1839 26.3599 50.7685 27.393 50.5466 28.4135L50.1415 30.266C49.9888 30.7921 49.6769 31.258 49.2485 31.5994C48.8201 31.9409 48.2964 32.1412 47.7495 32.1726C47.7321 32.1753 47.7146 32.177 47.697 32.1778Z" fill="#005F5C"/>
</svg>
