<svg width="24" height="24" viewBox="0 0 24 24" fill="none" xmlns="http://www.w3.org/2000/svg">
<g clip-path="url(#clip0_946_8)">
<path d="M15.5724 13.3808C15.5298 13.3119 15.4191 13.2694 15.2527 13.1865C15.0854 13.1052 14.2617 12.7027 14.1092 12.6469C14.0426 12.6229 13.9838 12.6036 13.9296 12.6036C13.8584 12.6036 13.7949 12.6361 13.7322 12.7298C13.6207 12.8962 13.2994 13.2694 13.2026 13.3808C13.1476 13.4443 13.0911 13.4761 13.023 13.4761C12.9719 13.4761 12.9123 13.4583 12.8411 13.4219C12.6723 13.3406 12.1334 13.1641 11.4947 12.5997C10.9977 12.1592 10.6617 11.6157 10.5634 11.4492C10.4658 11.2843 10.5533 11.1938 10.6377 11.1117C10.7128 11.035 10.8042 10.9166 10.8893 10.8198C10.9729 10.723 11.0008 10.6541 11.0558 10.5434C11.1107 10.4327 11.0836 10.3352 11.0411 10.2523C11 10.1695 10.6656 9.35272 10.5247 9.01981C10.4209 8.77207 10.3164 8.74033 10.2297 8.74033C10.2003 8.74033 10.1724 8.7442 10.1476 8.7442C10.0516 8.7442 9.94093 8.72949 9.8279 8.72949C9.71641 8.72949 9.53603 8.7713 9.38196 8.93852C9.22945 9.10343 8.7959 9.50523 8.7959 10.322C8.7959 11.1396 9.39512 11.9277 9.48029 12.0384C9.56312 12.1499 10.6377 13.8802 12.3378 14.5452C13.3234 14.9308 13.7384 15.0183 13.9722 15.0183C14.1425 15.0183 14.2168 14.9718 14.3461 14.9602C14.6519 14.9331 15.3355 14.5576 15.4756 14.1705C15.615 13.7834 15.615 13.4498 15.5724 13.3808Z" fill="white"/>
<path d="M17.5618 0H6.43819C2.94813 0 0 2.9489 0 6.43819V17.561C0 21.0511 2.94813 24 6.43819 24H17.5618C21.0511 24 24 21.0511 24 17.5603V6.43819C24 2.9489 21.0519 0 17.5618 0ZM22.4516 17.5603C22.4516 20.2111 20.2126 22.4508 17.5618 22.4508H6.43819C3.78813 22.4508 1.54839 20.2119 1.54839 17.5603V6.43819C1.54839 3.78813 3.78813 1.54839 6.43819 1.54839H17.5618C20.2119 1.54839 22.4516 3.78735 22.4516 6.43819V17.5603Z" fill="white"/>
<path d="M12.1262 4.27344C7.93625 4.27344 4.52748 7.65899 4.52748 11.8211C4.52748 13.076 4.83948 14.3062 5.43406 15.4001L4.31535 18.7029C4.26943 18.8384 4.26198 18.984 4.29382 19.1236C4.32567 19.2631 4.39556 19.3911 4.49574 19.4933C4.64361 19.6451 4.84413 19.7256 5.04851 19.7256C5.12671 19.7256 5.20567 19.714 5.28309 19.6892L8.75535 18.5867C9.79664 19.0977 10.9548 19.3671 12.1262 19.3671C16.3169 19.3671 19.7264 15.9823 19.7264 11.8211C19.7264 7.65899 16.3169 4.27344 12.1262 4.27344ZM12.1246 17.8195C11.0996 17.8195 10.0877 17.5617 9.19896 17.0732C9.10689 17.0228 9.00557 16.9917 8.90112 16.9815C8.79666 16.9714 8.69124 16.9826 8.59122 17.0143L6.27096 17.7506L7.01109 15.5674C7.08464 15.3506 7.05832 15.1114 6.93909 14.9155C6.37316 13.9865 6.07432 12.9165 6.07432 11.8218C6.07432 8.51447 8.78864 5.8226 12.1246 5.8226C15.4614 5.8226 18.1765 8.51447 18.1765 11.8218C18.1765 15.1284 15.4622 17.8195 12.1246 17.8195Z" fill="white"/>
</g>
<defs>
<clipPath id="clip0_946_8">
<rect width="24" height="24" fill="white"/>
</clipPath>
</defs>
</svg>
