<svg width="24" height="24" viewBox="0 0 24 24" fill="none" xmlns="http://www.w3.org/2000/svg">
<path d="M22.8699 16.7397C22.6254 16.3806 22.267 16.1145 21.8526 15.9845L21.6638 15.9006C20.9505 15.544 18.5697 14.3692 18.0767 14.191C17.3921 13.8787 16.582 14.1262 16.1888 14.7678L15.8741 15.2083C15.5473 15.6664 15.1972 16.1075 14.8253 16.5299C14.7309 16.6067 14.6163 16.6546 14.4953 16.6676C14.3743 16.6806 14.2521 16.6583 14.1436 16.6033L13.9548 16.5299C12.5472 15.9717 11.2534 15.1613 10.137 14.1385C9.09154 13.1657 8.18456 12.0541 7.44144 10.8346L7.36804 10.7298C7.26317 10.52 7.27364 10.4885 7.51489 10.2053C7.75614 9.92215 7.78761 9.90115 7.92394 9.76482C8.06027 9.62849 8.17566 9.5131 8.32252 9.33478L8.5323 9.10405C8.71771 8.89214 8.87301 8.65568 8.99381 8.40134C9.09567 8.18032 9.14221 7.93783 9.12942 7.6948C9.11663 7.45177 9.0449 7.2155 8.92041 7.00639L8.57429 6.1673C8.1967 5.26528 7.6408 3.85986 7.34714 3.18856C6.90663 2.21314 6.50805 2.03482 5.75288 2.00335H5.15504C4.74943 1.98439 4.34408 2.046 3.96242 2.18462C3.58077 2.32324 3.23037 2.53613 2.93147 2.81098L2.83708 2.90538C2.23863 3.49797 1.76723 4.20629 1.45164 4.98713C1.13605 5.76796 0.98289 6.60491 1.00152 7.44691C1.16476 9.50352 1.93091 11.4663 3.20409 13.0897L3.27749 13.2051C4.74589 15.3657 7.87143 19.2569 12.2346 21.0714C13.9217 21.9031 15.7509 22.4084 17.6257 22.5607C18.0032 22.5593 18.3795 22.5171 18.748 22.4349C20.3002 22.0888 22.1148 20.9979 22.6182 19.582C23.0183 18.6895 23.107 17.6885 22.8699 16.7397ZM21.6323 19.2254C21.2967 19.7949 20.8416 20.2848 20.2984 20.6614C19.7552 21.038 19.1368 21.2924 18.4858 21.407C17.7201 21.5643 16.6818 21.7846 12.5913 20.0959C8.50079 18.4073 5.50106 14.6734 4.09559 12.6177L3.99072 12.4604C2.88157 11.007 2.2086 9.26826 2.05034 7.44691C2.03187 6.73135 2.16216 6.01975 2.43297 5.35716C2.70379 4.69457 3.10922 4.09543 3.62361 3.59766L3.70754 3.50327C4.11387 3.17022 4.63039 3.00179 5.15494 3.03129H5.72132C6.13037 3.03129 6.15136 3.03129 6.39256 3.58719C6.63381 4.14309 7.24213 5.6849 7.60924 6.54493L7.98682 7.45743C8.13368 7.71962 8.10221 7.856 8.06022 7.96087C7.97562 8.1397 7.86616 8.30566 7.7351 8.45385L7.57777 8.65311L7.24212 9.0097C7.0848 9.16703 6.93794 9.32435 6.77014 9.52362C6.2988 9.97166 6.20279 10.6873 6.53942 11.2437L6.62334 11.3801C7.41636 12.6864 8.38313 13.879 9.49716 14.9252C10.7032 16.0256 12.1001 16.8965 13.6191 17.4949L13.8079 17.5683C14.1132 17.7069 14.4535 17.7491 14.7834 17.6891C15.1133 17.6291 15.417 17.4699 15.6539 17.2326C16.028 16.7757 16.3781 16.2996 16.7027 15.8062L17.0174 15.3657C17.0437 15.3056 17.0826 15.2519 17.1314 15.208C17.1802 15.1641 17.2378 15.1312 17.3003 15.1113C17.3628 15.0915 17.4289 15.0852 17.494 15.0929C17.5592 15.1005 17.622 15.122 17.6781 15.1559C18.0138 15.2818 19.6709 16.0789 21.1813 16.8236L21.3805 16.918C21.5658 16.9945 21.7447 17.0857 21.9154 17.1907C21.984 17.8818 21.8869 18.5793 21.6323 19.2254Z" fill="#A1C3C2" stroke="#A1C3C2"/>
</svg>
