<svg width="65" height="65" viewBox="0 0 65 65" fill="none" xmlns="http://www.w3.org/2000/svg">
<path d="M52.5009 24.1107C52.4164 24.1109 52.3337 24.0864 52.2629 24.0402C52.1922 23.9941 52.1365 23.9282 52.1027 23.8507C50.4149 19.9512 47.6231 16.6308 44.0713 14.2985C40.5195 11.9662 36.3629 10.724 32.1139 10.7251C31.9989 10.7251 31.8887 10.6794 31.8074 10.5981C31.7262 10.5169 31.6805 10.4067 31.6805 10.2917C31.6805 10.1768 31.7262 10.0666 31.8074 9.98532C31.8887 9.90405 31.9989 9.8584 32.1139 9.8584C36.5319 9.85719 40.8538 11.1486 44.5469 13.5734C48.24 15.9982 51.1431 19.4505 52.8983 23.5049C52.9271 23.5709 52.939 23.643 52.9329 23.7147C52.9269 23.7864 52.903 23.8555 52.8636 23.9157C52.8242 23.9759 52.7704 24.0253 52.707 24.0595C52.6437 24.0937 52.5729 24.1108 52.5009 24.1107ZM32.1139 55.1417C27.6959 55.143 23.374 53.8517 19.6809 51.4269C15.9878 49.0022 13.0847 45.55 11.3295 41.4956C11.2835 41.3901 11.2813 41.2707 11.3234 41.1636C11.3655 41.0565 11.4484 40.9705 11.5539 40.9245C11.6594 40.8785 11.7789 40.8763 11.886 40.9184C11.9931 40.9605 12.0791 41.0435 12.1251 41.149C13.8128 45.0485 16.6046 48.3691 20.1564 50.7015C23.7081 53.0338 27.8647 54.2761 32.1139 54.2751C32.8576 54.2751 33.6008 54.2377 34.3408 54.1628C34.3976 54.1559 34.4554 54.1604 34.5104 54.1763C34.5655 54.1921 34.6168 54.2189 34.6613 54.255C34.7058 54.2911 34.7426 54.3359 34.7694 54.3865C34.7962 54.4372 34.8126 54.4927 34.8174 54.5498C34.8234 54.6065 34.8182 54.6639 34.8019 54.7186C34.7857 54.7733 34.7589 54.8242 34.7229 54.8685C34.687 54.9128 34.6426 54.9495 34.5924 54.9766C34.5423 55.0037 34.4872 55.0207 34.4305 55.0265C33.6607 55.1039 32.8875 55.1424 32.1139 55.1417Z" fill="#005F5C"/>
<path d="M52.4953 24.1127C52.465 24.1128 52.4348 24.1096 52.4052 24.1032L48.3682 23.243C48.3118 23.2319 48.2582 23.2097 48.2104 23.1777C48.1627 23.1457 48.1218 23.1046 48.0901 23.0566C48.0584 23.0086 48.0366 22.9548 48.0259 22.8984C48.0152 22.8419 48.0158 22.7838 48.0278 22.7276C48.0398 22.6714 48.0628 22.6181 48.0955 22.5709C48.1283 22.5236 48.1701 22.4834 48.2186 22.4524C48.267 22.4215 48.3212 22.4006 48.3778 22.3908C48.4345 22.381 48.4925 22.3825 48.5485 22.3954L52.0966 23.1511L52.3402 19.5315C52.3431 19.4744 52.3574 19.4184 52.3824 19.367C52.4073 19.3156 52.4424 19.2697 52.4854 19.2321C52.5285 19.1945 52.5787 19.1659 52.633 19.1481C52.6874 19.1303 52.7447 19.1236 52.8017 19.1285C52.8585 19.1323 52.914 19.1472 52.965 19.1725C53.016 19.1977 53.0615 19.2328 53.099 19.2757C53.1365 19.3185 53.1651 19.3683 53.1833 19.4223C53.2015 19.4762 53.2089 19.5332 53.2051 19.59L52.9278 23.7067C52.9204 23.8165 52.8715 23.9194 52.791 23.9945C52.7106 24.0695 52.6045 24.1112 52.4944 24.111L52.4953 24.1127ZM11.4556 45.8734H11.4261C11.3693 45.8696 11.3139 45.8546 11.2628 45.8294C11.2118 45.8041 11.1663 45.7691 11.1288 45.7262C11.0913 45.6834 11.0627 45.6335 11.0445 45.5796C11.0263 45.5257 11.0189 45.4687 11.0227 45.4119L11.3 41.2952C11.3042 41.2332 11.3216 41.1729 11.3512 41.1182C11.3807 41.0636 11.4216 41.016 11.4712 40.9785C11.5208 40.9411 11.5778 40.9147 11.6384 40.9013C11.6991 40.8878 11.7619 40.8875 11.8226 40.9005L15.86 41.758C15.9164 41.7691 15.9701 41.7913 16.0178 41.8233C16.0656 41.8553 16.1065 41.8964 16.1382 41.9444C16.1699 41.9924 16.1917 42.0462 16.2024 42.1026C16.2131 42.1591 16.2124 42.2172 16.2005 42.2734C16.1885 42.3296 16.1655 42.3829 16.1327 42.4301C16.1 42.4774 16.0581 42.5176 16.0097 42.5486C15.9612 42.5795 15.9071 42.6005 15.8504 42.6102C15.7938 42.62 15.7358 42.6185 15.6797 42.6056L12.1333 41.8495L11.8898 45.4691C11.8824 45.5791 11.8334 45.6821 11.7527 45.7572C11.6721 45.8323 11.5658 45.8739 11.4556 45.8734ZM47.2741 60.667C44.7016 60.667 42.1869 59.9041 40.048 58.4749C37.9091 57.0457 36.242 55.0144 35.2576 52.6377C34.2732 50.2611 34.0156 47.6459 34.5175 45.1229C35.0194 42.5998 36.2582 40.2823 38.0772 38.4633C39.8963 36.6443 42.2139 35.4056 44.7369 34.9038C47.2599 34.402 49.8751 34.6596 52.2517 35.6441C54.6284 36.6286 56.6597 38.2958 58.0888 40.4347C59.5179 42.5737 60.2807 45.0884 60.2806 47.6609C60.2767 51.1092 58.9051 54.4151 56.4667 56.8534C54.0284 59.2917 50.7224 60.6632 47.2741 60.667ZM47.2741 35.5211C44.873 35.5211 42.5259 36.233 40.5295 37.567C38.5332 38.9009 36.9772 40.7969 36.0583 43.0152C35.1395 45.2334 34.8991 47.6744 35.3675 50.0292C35.8359 52.3841 36.9921 54.5473 38.6899 56.245C40.3877 57.9428 42.5508 59.099 44.9057 59.5675C47.2606 60.0359 49.7015 59.7955 51.9198 58.8766C54.1381 57.9578 56.034 56.4018 57.368 54.4054C58.7019 52.409 59.4139 50.0619 59.4139 47.6609C59.4102 44.4423 58.13 41.3566 55.8542 39.0808C53.5783 36.8049 50.4926 35.5247 47.2741 35.5211Z" fill="#005F5C"/>
<path d="M47.2741 57.9036C45.2225 57.9036 43.2171 57.2953 41.5113 56.1555C39.8055 55.0157 38.476 53.3957 37.6909 51.5004C36.9059 49.605 36.7004 47.5194 37.1007 45.5073C37.5009 43.4952 38.4888 41.6469 39.9395 40.1963C41.3901 38.7457 43.2384 37.7577 45.2505 37.3575C47.2626 36.9573 49.3482 37.1627 51.2435 37.9478C53.1389 38.7329 54.7589 40.0624 55.8987 41.7681C57.0384 43.4739 57.6468 45.4794 57.6468 47.5309C57.6437 50.281 56.5498 52.9175 54.6053 54.8621C52.6607 56.8067 50.0241 57.9005 47.2741 57.9036ZM47.2741 38.0249C45.394 38.0249 43.5561 38.5824 41.9928 39.6269C40.4295 40.6715 39.2111 42.1561 38.4916 43.8931C37.7722 45.6301 37.5839 47.5415 37.9507 49.3854C38.3175 51.2294 39.2228 52.9232 40.5523 54.2527C41.8817 55.5821 43.5755 56.4875 45.4195 56.8543C47.2635 57.2211 49.1749 57.0328 50.9119 56.3133C52.6489 55.5938 54.1335 54.3754 55.178 52.8122C56.2226 51.2489 56.7801 49.411 56.7801 47.5309C56.7772 45.0106 55.7748 42.5944 53.9927 40.8123C52.2106 39.0302 49.7943 38.0277 47.2741 38.0249Z" fill="#005F5C"/>
<path d="M47.274 47.964C46.6557 47.964 46.0513 47.7807 45.5373 47.4372C45.0232 47.0937 44.6225 46.6055 44.3859 46.0343C44.1493 45.4631 44.0874 44.8345 44.208 44.2281C44.3286 43.6217 44.6264 43.0647 45.0636 42.6275C45.5007 42.1903 46.0578 41.8926 46.6642 41.772C47.2705 41.6514 47.8991 41.7133 48.4703 41.9499C49.0415 42.1865 49.5298 42.5872 49.8732 43.1012C50.2167 43.6153 50.4001 44.2197 50.4001 44.838C50.4001 44.9529 50.3544 45.0631 50.2732 45.1444C50.1919 45.2257 50.0817 45.2713 49.9668 45.2713C49.8518 45.2713 49.7416 45.2257 49.6603 45.1444C49.5791 45.0631 49.5334 44.9529 49.5334 44.838C49.5334 44.3911 49.4009 43.9543 49.1526 43.5827C48.9044 43.2112 48.5515 42.9216 48.1387 42.7506C47.7258 42.5796 47.2715 42.5348 46.8332 42.622C46.3949 42.7092 45.9924 42.9244 45.6764 43.2403C45.3604 43.5563 45.1452 43.9589 45.058 44.3972C44.9709 44.8355 45.0156 45.2898 45.1866 45.7026C45.3576 46.1155 45.6472 46.4683 46.0188 46.7166C46.3903 46.9649 46.8272 47.0974 47.274 47.0974C47.3889 47.0974 47.4992 47.143 47.5804 47.2243C47.6617 47.3056 47.7074 47.4158 47.7074 47.5307C47.7074 47.6456 47.6617 47.7559 47.5804 47.8371C47.4992 47.9184 47.3889 47.964 47.274 47.964Z" fill="#005F5C"/>
<path d="M47.274 53.3496C46.4453 53.3486 45.6507 53.0189 45.0647 52.4329C44.4787 51.8468 44.149 51.0523 44.1479 50.2235C44.1479 50.1086 44.1936 49.9984 44.2749 49.9171C44.3561 49.8359 44.4664 49.7902 44.5813 49.7902C44.6962 49.7902 44.8064 49.8359 44.8877 49.9171C44.969 49.9984 45.0146 50.1086 45.0146 50.2235C45.0146 50.6704 45.1471 51.1072 45.3954 51.4788C45.6437 51.8504 45.9965 52.1399 46.4094 52.311C46.8222 52.482 47.2765 52.5267 47.7148 52.4395C48.1531 52.3523 48.5557 52.1372 48.8717 51.8212C49.1876 51.5052 49.4028 51.1026 49.49 50.6643C49.5772 50.226 49.5324 49.7718 49.3614 49.3589C49.1904 48.9461 48.9008 48.5932 48.5293 48.3449C48.1577 48.0967 47.7209 47.9641 47.274 47.9641C47.1591 47.9641 47.0489 47.9185 46.9676 47.8372C46.8863 47.756 46.8407 47.6457 46.8407 47.5308C46.8407 47.4159 46.8863 47.3057 46.9676 47.2244C47.0489 47.1431 47.1591 47.0975 47.274 47.0975C47.6845 47.0975 48.091 47.1783 48.4703 47.3354C48.8496 47.4925 49.1942 47.7228 49.4845 48.0131C49.7748 48.3034 50.005 48.648 50.1621 49.0272C50.3192 49.4065 50.4001 49.813 50.4001 50.2235C50.4001 50.6341 50.3192 51.0406 50.1621 51.4198C50.005 51.7991 49.7748 52.1437 49.4845 52.434C49.1942 52.7243 48.8496 52.9545 48.4703 53.1116C48.091 53.2687 47.6845 53.3496 47.274 53.3496ZM47.274 42.5787C47.1591 42.5787 47.0489 42.533 46.9676 42.4518C46.8863 42.3705 46.8407 42.2603 46.8407 42.1453V41.322C46.8407 41.2071 46.8863 41.0969 46.9676 41.0156C47.0489 40.9343 47.1591 40.8887 47.274 40.8887C47.3889 40.8887 47.4992 40.9343 47.5804 41.0156C47.6617 41.0969 47.7074 41.2071 47.7074 41.322V42.1453C47.7074 42.2603 47.6617 42.3705 47.5804 42.4518C47.4992 42.533 47.3889 42.5787 47.274 42.5787Z" fill="#005F5C"/>
<path d="M47.274 54.1724C47.1591 54.1724 47.0489 54.1268 46.9676 54.0455C46.8864 53.9642 46.8407 53.854 46.8407 53.7391V52.9158C46.8407 52.8008 46.8864 52.6906 46.9676 52.6093C47.0489 52.5281 47.1591 52.4824 47.274 52.4824C47.389 52.4824 47.4992 52.5281 47.5804 52.6093C47.6617 52.6906 47.7074 52.8008 47.7074 52.9158V53.7391C47.7074 53.854 47.6617 53.9642 47.5804 54.0455C47.4992 54.1268 47.389 54.1724 47.274 54.1724Z" fill="#005F5C"/>
<path d="M23.4884 35.4569H3.21868C3.18811 35.4569 3.15788 35.4505 3.12994 35.4381C3.10201 35.4256 3.07698 35.4075 3.05649 35.3848C3.03599 35.3621 3.02047 35.3354 3.01093 35.3063C3.00139 35.2773 2.99804 35.2466 3.0011 35.2162L5.20449 13.701C5.20992 13.647 5.23517 13.597 5.27537 13.5606C5.31557 13.5242 5.36785 13.504 5.42208 13.504H21.2847M23.4884 35.4569H23.4895C23.52 35.4569 23.5503 35.4505 23.5782 35.4381C23.6061 35.4256 23.6311 35.4075 23.6516 35.3848C23.6721 35.3621 23.6877 35.3354 23.6972 35.3063C23.7067 35.2773 23.7101 35.2466 23.707 35.2162L21.5036 13.701C21.4982 13.6468 21.4727 13.5966 21.4323 13.5602C21.3918 13.5237 21.3392 13.5037 21.2847 13.504M23.4884 35.4569C23.4341 35.4569 23.3817 35.4372 23.3415 35.4008C23.3012 35.3644 23.2759 35.3143 23.2705 35.2603L21.0671 13.7456C21.0641 13.7151 21.0674 13.6844 21.077 13.6554C21.0865 13.6263 21.102 13.5996 21.1225 13.5769C21.143 13.5542 21.168 13.5361 21.196 13.5237C21.2239 13.5112 21.2542 13.504 21.2847 13.504M23.4884 35.4569C23.5385 35.4573 23.5872 35.4406 23.6262 35.4092L25.8312 33.6173L28.3292 35.417C28.3634 35.4417 28.4041 35.4559 28.4462 35.458C28.4884 35.4601 28.5302 35.45 28.5667 35.4288C28.6033 35.4077 28.6329 35.3765 28.6521 35.3389C28.6712 35.3013 28.6791 35.2589 28.6748 35.217L26.4714 13.7018C26.466 13.6478 26.4407 13.5977 26.4005 13.5613C26.3602 13.5249 26.3079 13.5048 26.2536 13.5048L21.2847 13.504M23.4884 35.4569L28.457 35.4568C28.5033 35.4568 28.5485 35.4421 28.5859 35.4148C28.6234 35.3876 28.6512 35.3491 28.6654 35.305C28.6796 35.2609 28.6795 35.2135 28.665 35.1695C28.6505 35.1255 28.6224 35.0872 28.5848 35.0601L25.9509 33.1628C25.9118 33.1346 25.8646 33.1201 25.8165 33.1215C25.7684 33.1228 25.722 33.14 25.6847 33.1704L23.3499 35.068C23.3149 35.0965 23.2895 35.1352 23.2773 35.1788C23.265 35.2223 23.2666 35.2686 23.2817 35.3112C23.2969 35.3538 23.3249 35.3906 23.3618 35.4167C23.3987 35.4428 23.4431 35.457 23.4884 35.4569ZM18.1557 16.8126C18.0976 16.8126 18.0419 16.7896 18.0009 16.7485C17.9598 16.7075 17.9368 16.6518 17.9368 16.5937V11.8218C17.9368 10.6591 17.4749 9.54401 16.6527 8.72184C15.8305 7.89968 14.7155 7.43779 13.5527 7.43779C12.39 7.43779 11.2749 7.89968 10.4528 8.72184C9.63059 9.54401 9.16871 10.6591 9.16871 11.8218V16.5937C9.16871 16.6518 9.14564 16.7075 9.10459 16.7485C9.06354 16.7896 9.00787 16.8126 8.94981 16.8126M18.1557 16.8126C18.2137 16.8126 18.2694 16.7896 18.3104 16.7485C18.3515 16.7075 18.3746 16.6518 18.3746 16.5937V11.8218C18.3746 10.543 17.8665 9.31654 16.9623 8.41228C16.058 7.50801 14.8316 7 13.5527 7C12.2739 7 11.0475 7.50801 10.1432 8.41228C9.23893 9.31654 8.73092 10.543 8.73092 11.8218V16.5937C8.73092 16.6518 8.75398 16.7075 8.79503 16.7485C8.83608 16.7896 8.89176 16.8126 8.94981 16.8126M18.1557 16.8126C18.0279 16.8126 17.9029 16.8507 17.7966 16.9216C17.6903 16.9926 17.6075 17.0934 17.5586 17.2115C17.5097 17.3295 17.4968 17.4594 17.5217 17.5847C17.5466 17.71 17.6081 17.8251 17.6985 17.9155C17.7888 18.0059 17.9039 18.0674 18.0292 18.0924C18.1545 18.1173 18.2844 18.1045 18.4025 18.0556C18.5205 18.0067 18.6214 17.9239 18.6924 17.8177C18.7634 17.7115 18.8013 17.5866 18.8013 17.4588C18.8012 17.2875 18.7331 17.1233 18.6121 17.0021C18.491 16.8809 18.3269 16.8129 18.1557 16.8126ZM8.94981 16.8126C8.82205 16.8126 8.69704 16.8507 8.59081 16.9217C8.48458 16.9927 8.40179 17.0936 8.3529 17.2116C8.30401 17.3297 8.29121 17.4595 8.31614 17.5848C8.34106 17.7101 8.40258 17.8252 8.49292 17.9156C8.58326 18.0059 8.69836 18.0674 8.82366 18.0924C8.94897 18.1173 9.07885 18.1045 9.19688 18.0556C9.31492 18.0067 9.4158 17.9239 9.48678 17.8177C9.55776 17.7115 9.59564 17.5866 9.59564 17.4588C9.59559 17.2875 9.52752 17.1232 9.40641 17.002C9.28529 16.8808 9.12115 16.8128 8.94981 16.8126ZM3.46078 35.0192H23.2458L21.0871 13.9418H5.6193L3.46078 35.0192ZM21.5272 13.9421L23.6648 34.8131L25.6849 33.1714C25.7223 33.141 25.7686 33.1238 25.8167 33.1224C25.8648 33.1211 25.9121 33.1356 25.9511 33.1637L28.1897 34.7766L26.0562 13.9421H21.5272ZM24.1045 35.019H27.7789L25.8307 33.6159L24.1045 35.019ZM23.499 13.9416C23.441 13.9416 23.3853 13.9185 23.3442 13.8775C23.3032 13.8364 23.2801 13.7807 23.2801 13.7227V11.822C23.2719 10.6647 22.8065 9.55757 21.9852 8.74209C21.164 7.92662 20.0536 7.46898 18.8962 7.46898C17.7389 7.46898 16.6285 7.92662 15.8072 8.74209C14.9859 9.55757 14.5205 10.6647 14.5123 11.822V13.7227C14.5123 13.7807 14.4892 13.8364 14.4482 13.8775C14.4071 13.9185 14.3514 13.9416 14.2934 13.9416C14.2353 13.9416 14.1797 13.9185 14.1386 13.8775C14.0976 13.8364 14.0745 13.7807 14.0745 13.7227V11.822C14.0831 10.5489 14.5949 9.33076 15.4982 8.43351C16.4015 7.53626 17.623 7.0327 18.8962 7.0327C20.1694 7.0327 21.3909 7.53626 22.2942 8.43351C23.1976 9.33076 23.7093 10.5489 23.7179 11.822V13.7227C23.7179 13.7807 23.6948 13.8364 23.6538 13.8775C23.6127 13.9185 23.5571 13.9416 23.499 13.9416ZM18.1555 18.5421C17.9412 18.5422 17.7316 18.4786 17.5534 18.3596C17.3751 18.2405 17.2362 18.0713 17.1541 17.8733C17.0721 17.6752 17.0506 17.4573 17.0924 17.2471C17.1342 17.0368 17.2374 16.8437 17.3889 16.6921C17.5405 16.5405 17.7336 16.4373 17.9438 16.3955C18.154 16.3536 18.372 16.3751 18.57 16.4571C18.768 16.5391 18.9373 16.678 19.0564 16.8563C19.1755 17.0345 19.2391 17.244 19.2391 17.4584C19.2387 17.7457 19.1245 18.0211 18.9213 18.2242C18.7182 18.4274 18.4428 18.5417 18.1555 18.5421ZM8.94969 18.5421C8.73534 18.5421 8.52581 18.4786 8.34759 18.3595C8.16936 18.2404 8.03046 18.0711 7.94843 17.8731C7.86641 17.6751 7.84494 17.4572 7.88676 17.247C7.92858 17.0367 8.03179 16.8436 8.18336 16.6921C8.33492 16.5405 8.52803 16.4373 8.73826 16.3955C8.94848 16.3536 9.16639 16.3751 9.36442 16.4571C9.56245 16.5392 9.73171 16.6781 9.85079 16.8563C9.96987 17.0345 10.0334 17.244 10.0334 17.4584C10.0331 17.7457 9.91887 18.0212 9.71569 18.2244C9.51251 18.4276 9.23702 18.5418 8.94969 18.5421ZM6.03387 27.9161H6.01198C5.98332 27.9132 5.95551 27.9046 5.93016 27.8909C5.90481 27.8772 5.88241 27.8587 5.86425 27.8363C5.84609 27.8139 5.83252 27.7882 5.82433 27.7606C5.81614 27.7329 5.81348 27.704 5.81651 27.6753L6.48611 21.1378C6.49191 21.08 6.52043 21.0269 6.56538 20.9902C6.61033 20.9535 6.66804 20.9361 6.7258 20.9419C6.78356 20.9477 6.83666 20.9762 6.8734 21.0211C6.91014 21.0661 6.92752 21.1238 6.92171 21.1816L6.25211 27.7191C6.24668 27.7732 6.22133 27.8233 6.18099 27.8597C6.14065 27.8961 6.08821 27.9162 6.03387 27.9161ZM5.5928 32.2226H5.57091C5.54226 32.2197 5.51448 32.2111 5.48915 32.1974C5.46383 32.1837 5.44145 32.1651 5.42331 32.1428C5.40518 32.1204 5.39163 32.0947 5.38345 32.067C5.37527 32.0394 5.37262 32.0105 5.37566 31.9818L5.63592 29.4394C5.63794 29.4101 5.64582 29.3816 5.65909 29.3554C5.67236 29.3293 5.69074 29.3061 5.71315 29.2872C5.73556 29.2683 5.76154 29.2541 5.78955 29.2454C5.81756 29.2367 5.84702 29.2338 5.87619 29.2367C5.90537 29.2396 5.93365 29.2484 5.95937 29.2625C5.98509 29.2765 6.00772 29.2956 6.02592 29.3186C6.04412 29.3416 6.05751 29.368 6.06531 29.3963C6.07311 29.4245 6.07514 29.4541 6.0713 29.4832L5.81104 32.0256C5.8056 32.0797 5.78025 32.1298 5.73992 32.1662C5.69958 32.2026 5.64714 32.2227 5.5928 32.2226Z" stroke="#005F5C" stroke-width="0.5"/>
</svg>
