<svg width="32" height="32" viewBox="0 0 32 32" fill="none" xmlns="http://www.w3.org/2000/svg">
<g clip-path="url(#clip0_921_31)">
<path fill-rule="evenodd" clip-rule="evenodd" d="M2.77769 22.2993C1.13587 16.3375 0.303319 12.3902 4.10512 7.31915C5.51406 5.44445 6.92882 4.12284 9.17614 2.88274C10.1834 2.30636 11.307 1.93375 12.5762 1.61353C13.4379 1.40976 13.8454 1.24092 14.1307 1.03715C14.5907 0.722758 14.3636 -0.0282876 13.7872 0.000822733C7.38876 0.402545 2.02665 6.71366 0.5886 11.9302C-1.60049 19.8249 3.26675 27.9176 8.85592 29.6176C17.5017 32.2376 23.7546 22.7301 18.6253 16.943C15.1088 12.9665 6.81238 12.2155 8.1107 7.52292C8.68708 5.42116 10.1251 5.67733 11.8543 5.61911C12.1396 5.61911 12.3724 5.35712 12.4016 5.07184C12.4016 4.75744 12.1396 4.49545 11.8543 4.49545C9.29258 4.49545 6.8706 5.07184 6.46888 8.44281C5.46166 16.6519 18.1363 15.7029 18.538 22.2702C18.8233 27.021 13.4088 30.3396 8.74531 28.2611C1.71808 25.123 5.08905 20.3373 5.77605 18.2064C5.95072 17.6882 5.31611 17.2574 4.88528 17.6009C3.69758 18.5266 3.20853 21.7229 2.77769 22.2993Z" fill="#005F5C"/>
<path fill-rule="evenodd" clip-rule="evenodd" d="M20.0631 25.7281C27.1777 25.1808 30.5777 15.097 22.0775 10.3753C19.6847 9.04787 14.5554 7.09166 14.701 4.12241C14.9048 -0.575996 21.3847 2.04975 23.6029 3.34225C28.7904 6.42212 33.1103 14.2586 29.1921 22.2115C24.354 32.0625 15.5335 29.9316 12.0519 30.4789C11.6211 30.5371 11.5629 31.1717 11.9937 31.3172C20.034 34.1118 27.7832 27.7134 30.1411 23.1373C34.4611 14.7244 30.3449 6.45705 25.1574 2.82409C15.2832 -4.09252 8.27925 4.89674 16.8668 10.777C19.7196 12.7332 24.0396 13.8336 25.0177 16.9717C27.0088 23.1373 19.085 23.9407 20.0631 25.7281Z" fill="#005F5C"/>
<path fill-rule="evenodd" clip-rule="evenodd" d="M17.2684 24.8372C16.7502 24.3482 15.3937 24.0571 14.6485 23.6554C11.423 21.9553 10.8175 19.8827 11.1902 16.599C11.2193 16.337 11.1028 16.11 10.8758 15.9644C10.5323 15.7606 10.0665 15.9353 9.92677 16.337C9.29216 18.3224 10.0432 21.2916 11.0213 22.619C11.7141 23.5098 14.3341 25.3845 16.3485 25.6756C16.6338 25.7047 17.0995 25.5592 17.2102 25.2739V24.8431L17.2684 24.8372Z" fill="#005F5C"/>
</g>
<defs>
<clipPath id="clip0_921_31">
<rect width="32" height="32" fill="white"/>
</clipPath>
</defs>
</svg>
