<svg width="40" height="40" viewBox="0 0 40 40" fill="none" xmlns="http://www.w3.org/2000/svg">
<g clip-path="url(#clip0_934_6)">
<path fill-rule="evenodd" clip-rule="evenodd" d="M3.47163 27.8741C1.41935 20.4219 0.37866 15.4877 5.13092 9.14894C6.89209 6.80556 8.66054 5.15355 11.4697 3.60343C12.7287 2.88295 14.1333 2.41718 15.7198 2.01692C16.7969 1.7622 17.3063 1.55115 17.6629 1.29644C18.2378 0.903448 17.954 -0.0353595 17.2335 0.00102842C9.23547 0.503181 2.53282 8.39207 0.735262 14.9128C-2.00111 24.7812 4.08295 34.897 11.0694 37.0221C21.8766 40.297 29.6927 28.4127 23.2812 21.1788C18.8855 16.2082 8.51499 15.2694 10.1379 9.40365C10.8584 6.77645 12.6559 7.09666 14.8174 7.02389C15.174 7.02389 15.4651 6.6964 15.5015 6.33979C15.5015 5.94681 15.174 5.61932 14.8174 5.61932C11.6152 5.61932 8.58776 6.33979 8.08561 10.5535C6.82659 20.8149 22.6699 19.6286 23.172 27.8378C23.5286 33.7763 16.7605 37.9245 10.9311 35.3264C2.14711 31.4038 6.36083 25.4216 7.21958 22.758C7.43791 22.1103 6.64465 21.5718 6.10611 22.0011C4.62149 23.1583 4.01017 27.1537 3.47163 27.8741Z" fill="white"/>
<path fill-rule="evenodd" clip-rule="evenodd" d="M25.0791 32.1611C33.9723 31.477 38.2224 18.8722 27.5972 12.9701C24.6061 11.3108 18.1945 8.86555 18.3765 5.15398C18.6312 -0.719018 26.7311 2.56317 29.5039 4.17879C35.9882 8.02863 41.3882 17.8242 36.4904 27.7654C30.4427 40.0791 19.4172 37.4155 15.0652 38.0996C14.5266 38.1723 14.4539 38.9656 14.9924 39.1475C25.0427 42.6408 34.7292 34.6427 37.6766 28.9225C43.0766 18.4064 37.9313 8.07229 31.447 3.53108C19.1042 -5.11467 10.3493 6.1219 21.0837 13.4723C24.6497 15.9175 30.0497 17.293 31.2723 21.2156C33.7613 28.9225 23.8565 29.9268 25.0791 32.1611Z" fill="white"/>
<path fill-rule="evenodd" clip-rule="evenodd" d="M21.5852 31.0475C20.9375 30.4362 19.2419 30.0723 18.3103 29.5702C14.2786 27.4451 13.5217 24.8543 13.9874 20.7498C14.0238 20.4223 13.8783 20.1384 13.5945 19.9565C13.1651 19.7018 12.5829 19.9201 12.4082 20.4223C11.615 22.9039 12.5538 26.6155 13.7764 28.2748C14.6424 29.3882 17.9173 31.7316 20.4354 32.0955C20.792 32.1319 21.3742 31.9499 21.5125 31.5933V31.0548L21.5852 31.0475Z" fill="white"/>
</g>
<defs>
<clipPath id="clip0_934_6">
<rect width="40" height="40" fill="white"/>
</clipPath>
</defs>
</svg>
