<svg width="24" height="24" viewBox="0 0 24 24" fill="none" xmlns="http://www.w3.org/2000/svg">
<g clip-path="url(#clip0_876_2)">
<path fill-rule="evenodd" clip-rule="evenodd" d="M22.9688 6.75C22.9688 3.59363 20.4064 1.03125 17.25 1.03125H6.75C3.59363 1.03125 1.03125 3.59363 1.03125 6.75V17.25C1.03125 20.4064 3.59363 22.9688 6.75 22.9688H17.25C20.4064 22.9688 22.9688 20.4064 22.9688 17.25V6.75ZM22.0312 6.75V17.25C22.0312 19.8889 19.8889 22.0312 17.25 22.0312H6.75C4.11112 22.0312 1.96875 19.8889 1.96875 17.25V6.75C1.96875 4.11112 4.11112 1.96875 6.75 1.96875H17.25C19.8889 1.96875 22.0312 4.11112 22.0312 6.75Z" fill="white" stroke="white" stroke-width="0.5"/>
<path fill-rule="evenodd" clip-rule="evenodd" d="M11.9827 6.5598C8.9831 6.5598 6.54785 8.99505 6.54785 11.9947C6.54785 14.9943 8.9831 17.4295 11.9827 17.4295C14.9824 17.4295 17.4176 14.9943 17.4176 11.9947C17.4176 8.99505 14.9824 6.5598 11.9827 6.5598ZM11.9827 7.4973C14.4652 7.4973 16.4801 9.51255 16.4801 11.9947C16.4801 14.4768 14.4649 16.492 11.9827 16.492C9.5006 16.492 7.48535 14.4768 7.48535 11.9947C7.48535 9.51255 9.5006 7.4973 11.9827 7.4973ZM18.3555 4.0293C17.478 4.0293 16.7659 4.7418 16.7659 5.61892C16.7659 6.49605 17.4784 7.20855 18.3555 7.20855C19.2326 7.20855 19.9451 6.49605 19.9451 5.61892C19.9451 4.7418 19.2326 4.0293 18.3555 4.0293ZM18.3555 4.96455C18.5252 4.97029 18.686 5.04175 18.8041 5.16384C18.9221 5.28594 18.9881 5.44911 18.9881 5.61892C18.9881 5.78874 18.9221 5.95191 18.8041 6.074C18.686 6.19609 18.5252 6.26755 18.3555 6.2733C18.1858 6.26755 18.0249 6.19609 17.9069 6.074C17.7889 5.95191 17.7229 5.78874 17.7229 5.61892C17.7229 5.44911 17.7889 5.28594 17.9069 5.16384C18.0249 5.04175 18.1858 4.97029 18.3555 4.96455Z" fill="white" stroke="white" stroke-width="0.5"/>
</g>
<defs>
<clipPath id="clip0_876_2">
<rect width="24" height="24" fill="white"/>
</clipPath>
</defs>
</svg>
