<?xml version="1.0" encoding="utf-8"?>
<!-- Generator: Adobe Illustrator 27.3.1, SVG Export Plug-In . SVG Version: 6.00 Build 0)  -->
<svg version="1.1" id="Слой_1" xmlns:xodm="http://www.corel.com/coreldraw/odm/2003"
	 xmlns="http://www.w3.org/2000/svg" xmlns:xlink="http://www.w3.org/1999/xlink" x="0px" y="0px" viewBox="0 0 612 792"
	 style="enable-background:new 0 0 612 792;" xml:space="preserve">
<style type="text/css">
	.st0{fill-rule:evenodd;clip-rule:evenodd;fill:#005F5C;}
</style>
<g id="Слой_x0020_1">
	<g id="_2788361024640">
		<path class="st0" d="M78.8,508.3C50.6,405.9,36.3,338.1,101.6,251c24.2-32.2,48.5-54.9,87.1-76.2c17.3-9.9,36.6-16.3,58.4-21.8
			c14.8-3.5,21.8-6.4,26.7-9.9c7.9-5.4,4-18.3-5.9-17.8C158,132.2,65.9,240.6,41.2,330.2c-37.6,135.6,46,274.6,142,303.8
			C331.7,679,439.1,515.7,351,416.3c-60.4-68.3-202.9-81.2-180.6-161.8c9.9-36.1,34.6-31.7,64.3-32.7c4.9,0,8.9-4.5,9.4-9.4l0,0
			c0-5.4-4.5-9.9-9.4-9.9c-44,0-85.6,9.9-92.5,67.8c-17.3,141,200.4,124.7,207.3,237.5c4.9,81.6-88.1,138.6-168.2,102.9
			c-120.7-53.9-62.8-136.1-51-172.7c3-8.9-7.9-16.3-15.3-10.4C94.6,443.5,86.2,498.4,78.8,508.3L78.8,508.3z"/>
		<path class="st0" d="M375.7,567.2c122.2-9.4,180.6-182.6,34.6-263.7c-41.1-22.8-129.2-56.4-126.7-107.4
			c3.5-80.7,114.8-35.6,152.9-13.4c89.1,52.9,163.3,187.5,96,324.1c-83.1,169.2-234.6,132.6-294.4,142c-7.4,1-8.4,11.9-1,14.4
			c138.1,48,271.2-61.9,311.7-140.5c74.2-144.5,3.5-286.5-85.6-348.9C293.6,55,173.3,209.4,320.8,310.4
			c49,33.6,123.2,52.5,140,106.4C495,522.7,358.9,536.5,375.7,567.2L375.7,567.2z"/>
		<path class="st0" d="M327.7,551.9c-8.9-8.4-32.2-13.4-45-20.3c-55.4-29.2-65.8-64.8-59.4-121.2c0.5-4.5-1.5-8.4-5.4-10.9l0,0
			c-5.9-3.5-13.9-0.5-16.3,6.4c-10.9,34.1,2,85.1,18.8,107.9c11.9,15.3,56.9,47.5,91.5,52.5c4.9,0.5,12.9-2,14.8-6.9V552
			L327.7,551.9L327.7,551.9z"/>
	</g>
</g>
</svg>
