<svg width="24" height="24" viewBox="0 0 24 24" fill="none" xmlns="http://www.w3.org/2000/svg">
<path d="M13.4606 12.0071L21.6839 3.8288C21.7776 3.73668 21.8519 3.62684 21.9027 3.50569C21.9535 3.38454 21.9796 3.2545 21.9796 3.12314C21.9796 2.99178 21.9535 2.86174 21.9027 2.74058C21.8519 2.61943 21.7776 2.5096 21.6839 2.41748C21.2907 2.02721 20.6519 2.02721 20.2587 2.41748L12.0424 10.5889L3.75014 2.29569C3.35689 1.90144 2.71814 1.90144 2.32489 2.29569C1.93164 2.69093 1.93164 3.33067 2.32489 3.72492L10.6111 12.0121L2.29494 20.2823C1.90169 20.6726 1.90169 21.3044 2.29494 21.6936C2.68819 22.0839 3.32694 22.0839 3.72019 21.6936L12.0293 13.4304L20.2885 21.6906C20.6818 22.0849 21.3205 22.0849 21.7138 21.6906C22.107 21.2954 22.107 20.6557 21.7138 20.2614L13.4606 12.0071Z" fill="#A1C3C2"/>
</svg>
