<svg width="24" height="24" viewBox="0 0 24 24" fill="none" xmlns="http://www.w3.org/2000/svg">
<path d="M21.1 6V5.9H21H3H2.9V6V6.3675V6.4175L2.94 6.4475L11.94 13.1975L12 13.2425L12.06 13.1975L21.06 6.4475L21.1 6.4175V6.3675V6ZM2.9 18V18.1H3H21H21.1V18V8.25V8.05L20.94 8.17L12.84 14.245C12.5977 14.4268 12.3029 14.525 12 14.525C11.6971 14.525 11.4023 14.4268 11.16 14.245L3.06 8.17L2.9 8.05V8.25V18ZM3 4.6H21C21.3713 4.6 21.7274 4.7475 21.9899 5.01005C22.2525 5.2726 22.4 5.6287 22.4 6V18C22.4 18.3713 22.2525 18.7274 21.9899 18.9899C21.7274 19.2525 21.3713 19.4 21 19.4H3C2.6287 19.4 2.2726 19.2525 2.01005 18.9899C1.7475 18.7274 1.6 18.3713 1.6 18V6C1.6 5.6287 1.7475 5.2726 2.01005 5.01005C2.2726 4.7475 2.6287 4.6 3 4.6Z" fill="#005F5C" stroke="white" stroke-width="0.2"/>
</svg>
