<svg width="65" height="65" viewBox="0 0 65 65" fill="none" xmlns="http://www.w3.org/2000/svg">
<path d="M50.9075 43.7587H41.5572C41.4617 43.7587 41.3701 43.7188 41.3026 43.6476C41.2351 43.5765 41.1971 43.48 41.1971 43.3794C41.1971 43.2787 41.2351 43.1823 41.3026 43.1111C41.3701 43.04 41.4617 43 41.5572 43H50.9075C51.003 43 51.0946 43.04 51.1621 43.1111C51.2296 43.1823 51.2676 43.2787 51.2676 43.3794C51.2676 43.48 51.2296 43.5765 51.1621 43.6476C51.0946 43.7188 51.003 43.7587 50.9075 43.7587ZM50.3585 49.3794H43.5661C43.4707 49.3794 43.3791 49.3394 43.3116 49.2682C43.244 49.1971 43.2061 49.1006 43.2061 49C43.2061 48.8994 43.244 48.8029 43.3116 48.7317C43.3791 48.6606 43.4707 48.6206 43.5661 48.6206H50.3585C50.454 48.6206 50.5455 48.6606 50.6131 48.7317C50.6806 48.8029 50.7185 48.8994 50.7185 49C50.7185 49.1006 50.6806 49.1971 50.6131 49.2682C50.5455 49.3394 50.454 49.3794 50.3585 49.3794ZM47.8278 55H42.9339C42.8384 55 42.7469 54.96 42.6794 54.8889C42.6118 54.8177 42.5739 54.7213 42.5739 54.6206C42.5739 54.52 42.6118 54.4235 42.6794 54.3524C42.7469 54.2812 42.8384 54.2413 42.9339 54.2413H47.8278C47.9233 54.2413 48.0149 54.2812 48.0824 54.3524C48.1499 54.4235 48.1879 54.52 48.1879 54.6206C48.1879 54.7213 48.1499 54.8177 48.0824 54.8889C48.0149 54.96 47.9233 55 47.8278 55Z" fill="#005F5C"/>
<path d="M46.1654 60.9983H26.8745C26.8502 60.9981 26.8259 60.9953 26.8021 60.99L20.25 59.4992H18.6733C18.5774 59.4992 18.4854 59.4578 18.4176 59.3841C18.3498 59.3104 18.3117 59.2105 18.3117 59.1063C18.3117 59.0021 18.3498 58.9022 18.4176 58.8285C18.4854 58.7549 18.5774 58.7135 18.6733 58.7135H20.2876C20.3119 58.7138 20.3361 58.7166 20.3599 58.7217L26.9121 60.2145H46.1654C46.7126 60.2242 47.2464 60.0299 47.6777 59.6639C48.109 59.2979 48.4119 58.7823 48.5358 58.2032C48.6039 57.8344 48.5958 57.4537 48.5121 57.0887C48.4283 56.7237 48.271 56.3834 48.0516 56.0925C47.8341 55.8057 47.5609 55.5748 47.2515 55.4165C46.9421 55.2582 46.6043 55.1763 46.2623 55.1767C46.1664 55.1767 46.0744 55.1354 46.0066 55.0617C45.9387 54.988 45.9006 54.8881 45.9006 54.7839C45.9006 54.6797 45.9387 54.5798 46.0066 54.5061C46.0744 54.4325 46.1664 54.3911 46.2623 54.3911H48.0284C48.5778 54.4055 49.1148 54.2127 49.5482 53.8456C49.9816 53.4785 50.2846 52.9597 50.4057 52.3774C50.4718 52.0091 50.4622 51.6295 50.3773 51.2658C50.2925 50.9021 50.1346 50.5633 49.915 50.2737C49.6983 49.9879 49.426 49.7577 49.1177 49.5998C48.8094 49.4419 48.4727 49.3601 48.1318 49.3604C48.0359 49.3604 47.9439 49.319 47.8761 49.2453C47.8083 49.1716 47.7702 49.0717 47.7702 48.9675C47.7702 48.8633 47.8083 48.7634 47.8761 48.6897C47.9439 48.6161 48.0359 48.5747 48.1318 48.5747H49.4568C50.007 48.5885 50.5445 48.3947 50.9779 48.0263C51.4113 47.658 51.7138 47.1377 51.8337 46.5543C51.8999 46.186 51.8903 45.8064 51.8056 45.4427C51.7209 45.0789 51.5632 44.74 51.3437 44.4502C51.1269 44.1645 50.8545 43.9344 50.5462 43.7765C50.2378 43.6186 49.9011 43.5367 49.5602 43.5369C49.4643 43.5369 49.3723 43.4955 49.3045 43.4218C49.2367 43.3482 49.1986 43.2482 49.1986 43.1441C49.1986 43.0399 49.2367 42.9399 49.3045 42.8663C49.3723 42.7926 49.4643 42.7512 49.5602 42.7512H51.8927C52.5062 42.7502 53.0943 42.485 53.5281 42.0137C53.9619 41.5424 54.2061 40.9035 54.207 40.237V40.0646C54.2064 39.3958 53.9615 38.7546 53.5262 38.2816C53.0909 37.8087 52.5007 37.5426 51.8851 37.5418L32.2723 37.7382H32.2691C32.1918 37.7381 32.1166 37.7111 32.0544 37.6611C31.9923 37.6112 31.9465 37.5409 31.9238 37.4607C31.9011 37.3804 31.9027 37.2943 31.9284 37.2151C31.954 37.1359 32.0023 37.0677 32.0662 37.0205C34.3169 35.3603 35.0857 34.4866 36.7098 32.4124C38.5034 30.1147 39.3351 26.6833 37.1509 24.186C37.039 24.0585 36.9043 23.9572 36.7551 23.8881C36.6058 23.8191 36.4452 23.7838 36.283 23.7845C35.9164 23.7863 35.5654 23.9458 35.3067 24.228L30.3344 30.0515C27.2297 33.5312 23.1384 35.7763 18.7178 36.4261C18.6707 36.4327 18.6228 36.4292 18.577 36.4157C18.5311 36.4022 18.4882 36.379 18.4506 36.3475C18.413 36.316 18.3815 36.2767 18.3578 36.232C18.3342 36.1872 18.3189 36.1379 18.3128 36.0867C18.3067 36.0355 18.31 35.9835 18.3224 35.9337C18.3348 35.8839 18.3561 35.8373 18.3851 35.7964C18.4141 35.7555 18.4503 35.7213 18.4915 35.6956C18.5327 35.6699 18.5781 35.6533 18.6252 35.6467C22.8812 35.0212 26.8204 32.8605 29.8104 29.5113L34.782 23.6875C35.1807 23.2504 35.7228 23.0032 36.2892 23C36.5486 23 36.8054 23.0573 37.0438 23.1684C37.2822 23.2796 37.4973 23.4423 37.676 23.6466C40.1672 26.4971 39.2628 30.3567 37.2616 32.9176C35.8719 34.6925 35.059 35.6463 33.4284 36.9376L51.8811 36.7541C52.689 36.7544 53.4638 37.103 54.0353 37.7233C54.6069 38.3436 54.9285 39.185 54.9295 40.0626V40.2351C54.9284 41.1099 54.608 41.9485 54.0386 42.567C53.4692 43.1856 52.6972 43.5337 51.8919 43.5349H51.5256C51.9703 43.942 52.2977 44.4796 52.4687 45.0834C52.6398 45.6872 52.6472 46.3318 52.4901 46.94C52.3329 47.5483 52.018 48.0945 51.5828 48.5136C51.1475 48.9326 50.6105 49.2066 50.0358 49.303C50.521 49.7245 50.8754 50.2978 51.0509 50.9452C51.2265 51.5927 51.2146 52.2831 51.0171 52.9231C50.8196 53.563 50.4458 54.1216 49.9465 54.5232C49.4471 54.9248 48.8462 55.1501 48.2251 55.1685C48.7082 55.6114 49.0524 56.2067 49.2098 56.8718C49.3671 57.5369 49.3299 58.2387 49.1032 58.8798C48.8766 59.5209 48.4717 60.0693 47.945 60.449C47.4182 60.8286 46.7957 61.0206 46.1639 60.9983H46.1654Z" fill="#005F5C"/>
<path d="M17.6746 61H10.7057C10.2945 60.9995 9.90036 60.8204 9.60964 60.5021C9.31892 60.1838 9.15538 59.7523 9.15491 59.3021V35.6979C9.15538 35.2477 9.31892 34.8162 9.60964 34.4979C9.90036 34.1796 10.2945 34.0005 10.7057 34H17.6746C18.0857 34.0005 18.4799 34.1796 18.7706 34.4979C19.0613 34.8162 19.2249 35.2477 19.2253 35.6979V59.3021C19.2249 59.7523 19.0613 60.1838 18.7706 60.5021C18.4799 60.8204 18.0857 60.9995 17.6746 61ZM10.7057 34.7877C10.4852 34.7879 10.2739 34.8839 10.118 35.0545C9.96219 35.2251 9.87454 35.4565 9.87435 35.6979V59.3021C9.87464 59.5434 9.96231 59.7748 10.1182 59.9454C10.274 60.116 10.4853 60.212 10.7057 60.2123H17.6746C17.895 60.2121 18.1063 60.1161 18.2622 59.9455C18.418 59.7749 18.5057 59.5435 18.5059 59.3021V35.6979C18.5057 35.4565 18.418 35.2251 18.2622 35.0545C18.1063 34.8839 17.895 34.7879 17.6746 34.7877H10.7057Z" fill="#005F5C"/>
<path d="M14.7082 59.1502C14.3054 59.1502 13.9115 59.0198 13.5765 58.7754C13.2416 58.531 12.9804 58.1835 12.8262 57.777C12.672 57.3705 12.6317 56.9231 12.7102 56.4915C12.7888 56.0599 12.9828 55.6634 13.2677 55.3523C13.5525 55.0411 13.9155 54.8292 14.3106 54.7434C14.7057 54.6576 15.1153 54.7017 15.4874 54.8701C15.8596 55.0385 16.1777 55.3238 16.4015 55.6897C16.6253 56.0556 16.7447 56.4858 16.7446 56.9259C16.7439 57.5156 16.5292 58.0809 16.1474 58.4979C15.7657 58.9149 15.2481 59.1495 14.7082 59.1502ZM14.7082 55.5678C14.4623 55.5677 14.2219 55.6473 14.0174 55.7964C13.8129 55.9456 13.6535 56.1577 13.5593 56.4058C13.4651 56.654 13.4405 56.9271 13.4884 57.1905C13.5363 57.454 13.6547 57.696 13.8286 57.886C14.0024 58.076 14.224 58.2054 14.4651 58.2578C14.7063 58.3102 14.9563 58.2834 15.1835 58.1806C15.4108 58.0778 15.605 57.9037 15.7416 57.6804C15.8782 57.4571 15.9511 57.1945 15.9511 56.9259C15.9507 56.5659 15.8197 56.2208 15.5867 55.9662C15.3537 55.7116 15.0378 55.5684 14.7082 55.5678ZM37.6831 58.8161H29.1736C29.147 58.8157 29.1204 58.8126 29.0943 58.8069L25.556 57.9975C25.453 57.9739 25.3628 57.9065 25.3052 57.8103C25.2477 57.714 25.2275 57.5967 25.2491 57.4842C25.2708 57.3717 25.3324 57.2732 25.4205 57.2103C25.5087 57.1474 25.616 57.1254 25.719 57.149L29.2169 57.9494H33.45H37.6831C37.7883 57.9494 37.8892 57.995 37.9636 58.0763C38.038 58.1576 38.0798 58.2678 38.0798 58.3827C38.0798 58.4976 38.038 58.6079 37.9636 58.6891C37.8892 58.7704 37.7883 58.8161 37.6831 58.8161ZM11.3612 52.1986C11.256 52.1986 11.155 52.153 11.0807 52.0717C11.0063 51.9904 10.9645 51.8802 10.9645 51.7653V49.4283C10.9645 49.3134 11.0063 49.2032 11.0807 49.1219C11.155 49.0406 11.256 48.995 11.3612 48.995C11.4664 48.995 11.5673 49.0406 11.6417 49.1219C11.7161 49.2032 11.7579 49.3134 11.7579 49.4283V51.7653C11.7579 51.8802 11.7161 51.9904 11.6417 52.0717C11.5673 52.153 11.4664 52.1986 11.3612 52.1986ZM11.3612 47.571C11.256 47.571 11.155 47.5254 11.0807 47.4441C11.0063 47.3629 10.9645 47.2526 10.9645 47.1377V36.8573C10.9645 36.7424 11.0063 36.6322 11.0807 36.5509C11.155 36.4696 11.256 36.424 11.3612 36.424C11.4664 36.424 11.5673 36.4696 11.6417 36.5509C11.7161 36.6322 11.7579 36.7424 11.7579 36.8573V47.1377C11.7579 47.2526 11.7161 47.3629 11.6417 47.4441C11.5673 47.5254 11.4664 47.571 11.3612 47.571ZM23.6383 18.373C23.574 18.3731 23.5107 18.356 23.4539 18.3232L20.5047 16.6297L17.5551 18.3232C17.4896 18.3608 17.4158 18.3777 17.3419 18.3719C17.2681 18.366 17.1972 18.3378 17.1374 18.2903C17.0775 18.2427 17.0309 18.1779 17.0031 18.103C16.9752 18.0281 16.967 17.9462 16.9795 17.8665L17.5428 14.2798L15.1574 11.74C15.1043 11.6836 15.0668 11.6121 15.0491 11.5336C15.0313 11.455 15.034 11.3727 15.0569 11.2957C15.0797 11.2188 15.1218 11.1504 15.1785 11.0983C15.2351 11.0462 15.3039 11.0124 15.3772 11.0007L18.6739 10.4777L20.1484 7.21428C20.185 7.14672 20.237 7.09072 20.2993 7.05183C20.3617 7.01293 20.4323 6.99247 20.5041 6.99247C20.5759 6.99247 20.6465 7.01293 20.7089 7.05183C20.7712 7.09072 20.8232 7.14672 20.8598 7.21428L22.3343 10.4777L25.6306 11.0007C25.7039 11.0123 25.7728 11.046 25.8295 11.0982C25.8861 11.1503 25.9283 11.2186 25.9512 11.2956C25.9741 11.3725 25.9769 11.4549 25.9591 11.5335C25.9414 11.612 25.9039 11.6836 25.8508 11.74L23.4662 14.2798L24.0295 17.8665C24.0393 17.9287 24.0365 17.9924 24.0213 18.0533C24.0062 18.1142 23.9791 18.1707 23.9419 18.2189C23.9047 18.2672 23.8582 18.306 23.8059 18.3326C23.7535 18.3592 23.6961 18.373 23.6383 18.373ZM20.5043 15.7072C20.5685 15.7071 20.6318 15.724 20.6888 15.7566L23.1111 17.1476L22.6485 14.2009C22.6376 14.1317 22.6423 14.0606 22.6621 13.9938C22.682 13.927 22.7164 13.8665 22.7624 13.8174L24.7214 11.7313L22.0142 11.3019C21.9505 11.2918 21.89 11.2649 21.838 11.2235C21.7859 11.1821 21.7439 11.1275 21.7155 11.0644L20.5043 8.38471L19.2939 11.0653C19.2655 11.1284 19.2235 11.183 19.1714 11.2243C19.1194 11.2657 19.0589 11.2926 18.9952 11.3028L16.2876 11.7322L18.247 13.8183C18.293 13.8673 18.3274 13.9279 18.3472 13.9947C18.3671 14.0615 18.3717 14.1326 18.3609 14.2018L17.8983 17.1484L20.3202 15.7574C20.3771 15.7246 20.44 15.7074 20.5043 15.7072ZM42.6484 18.373C42.5906 18.3731 42.5336 18.3593 42.4811 18.3327C42.4287 18.3061 42.3823 18.2673 42.345 18.2191C42.3078 18.1709 42.2806 18.1143 42.2655 18.0534C42.2503 17.9925 42.2475 17.9287 42.2573 17.8665L42.8206 14.2798L40.4352 11.74C40.3821 11.6836 40.3446 11.6121 40.3268 11.5336C40.3091 11.455 40.3118 11.3727 40.3346 11.2957C40.3575 11.2188 40.3996 11.1504 40.4562 11.0983C40.5128 11.0462 40.5817 11.0124 40.6549 11.0007L43.9516 10.4777L45.4262 7.21428C45.4627 7.14672 45.5147 7.09072 45.5771 7.05183C45.6395 7.01293 45.7101 6.99247 45.7819 6.99247C45.8537 6.99247 45.9243 7.01293 45.9866 7.05183C46.049 7.09072 46.101 7.14672 46.1375 7.21428L47.6117 10.4777L50.9084 11.0007C50.9817 11.0123 51.0506 11.046 51.1072 11.0982C51.1639 11.1503 51.2061 11.2186 51.229 11.2956C51.2519 11.3725 51.2546 11.4549 51.2369 11.5335C51.2192 11.612 51.1816 11.6836 51.1286 11.74L48.7427 14.2798L49.3057 17.8665C49.3182 17.9462 49.31 18.0281 49.2821 18.103C49.2542 18.1779 49.2077 18.2427 49.1478 18.2903C49.0879 18.3378 49.0171 18.366 48.9432 18.3719C48.8694 18.3777 48.7956 18.3608 48.7301 18.3232L45.7817 16.6297L42.8325 18.3232C42.7758 18.356 42.7126 18.3731 42.6484 18.373ZM45.7825 15.7072C45.8468 15.7072 45.9102 15.7242 45.9673 15.7566L48.3873 17.1476L47.9251 14.2009C47.9142 14.1317 47.9189 14.0606 47.9387 13.9938C47.9586 13.927 47.993 13.8665 48.039 13.8174L49.9983 11.7313L47.2912 11.3019C47.2275 11.2918 47.167 11.2649 47.115 11.2235C47.0629 11.1821 47.0209 11.1275 46.9924 11.0644L45.7813 8.38471L44.5713 11.0653C44.5429 11.1284 44.5008 11.183 44.4488 11.2243C44.3968 11.2657 44.3363 11.2926 44.2726 11.3028L41.5654 11.7322L43.5248 13.8183C43.5708 13.8673 43.6052 13.9279 43.625 13.9947C43.6449 14.0615 43.6495 14.1326 43.6386 14.2018L43.1761 17.1484L45.596 15.7574C45.6532 15.7244 45.7178 15.7071 45.7825 15.7072ZM36.2764 14.3801C36.2122 14.3801 36.1489 14.3632 36.0919 14.3307L33.1432 12.6373L30.1948 14.3307C30.1293 14.3684 30.0554 14.3853 29.9815 14.3794C29.9076 14.3736 29.8367 14.3453 29.7768 14.2977C29.7169 14.2501 29.6704 14.1852 29.6426 14.1102C29.6147 14.0353 29.6066 13.9533 29.6192 13.8736L30.1821 10.2869L27.7963 7.74755C27.7432 7.69109 27.7057 7.61954 27.688 7.541C27.6702 7.46245 27.673 7.38005 27.6959 7.30311C27.7188 7.22618 27.761 7.15779 27.8176 7.10568C27.8743 7.05358 27.9432 7.01984 28.0165 7.00828L31.3132 6.48481L32.7873 3.22181C32.8238 3.15425 32.8758 3.09826 32.9382 3.05936C33.0006 3.02046 33.0712 3 33.143 3C33.2148 3 33.2854 3.02046 33.3478 3.05936C33.4101 3.09826 33.4621 3.15425 33.4986 3.22181L34.9732 6.48481L38.2699 7.00828C38.3432 7.0199 38.412 7.05369 38.4686 7.10583C38.5252 7.15796 38.5673 7.22636 38.5902 7.30328C38.6131 7.3802 38.6158 7.46258 38.598 7.54109C38.5803 7.6196 38.5427 7.69112 38.4897 7.74755L36.1042 10.2869L36.6672 13.8736C36.6769 13.9358 36.6742 13.9995 36.659 14.0604C36.6439 14.1213 36.6168 14.1778 36.5795 14.226C36.5423 14.2743 36.4959 14.3131 36.4436 14.3397C36.3912 14.3663 36.3342 14.3801 36.2764 14.3801ZM28.9261 7.73975L30.8847 9.82538C30.9307 9.87444 30.9651 9.93498 30.985 10.0018C31.0048 10.0686 31.0095 10.1397 30.9986 10.2089L30.5364 13.1555L32.9563 11.765C33.0133 11.7323 33.0767 11.7152 33.141 11.7152C33.2053 11.7152 33.2687 11.7323 33.3257 11.765L35.7476 13.1555L35.285 10.2089C35.2741 10.1397 35.2788 10.0686 35.2986 10.0018C35.3185 9.93498 35.3529 9.87444 35.3989 9.82538L37.3583 7.73975L34.6535 7.30988C34.5898 7.29978 34.5294 7.27293 34.4773 7.23164C34.4253 7.19035 34.3832 7.13585 34.3547 7.07285L33.144 4.39268L31.9332 7.07285C31.9048 7.13585 31.8627 7.19035 31.8106 7.23164C31.7586 7.27293 31.6982 7.29978 31.6345 7.30988L28.9261 7.73975Z" fill="#005F5C"/>
<path fill-rule="evenodd" clip-rule="evenodd" d="M11.4019 26.6834C11.3376 26.6834 11.2743 26.6663 11.2174 26.6335L8.26825 24.9401L5.31869 26.6335C5.25317 26.6712 5.17932 26.688 5.10549 26.6822C5.03167 26.6764 4.96081 26.6481 4.90092 26.6006C4.84103 26.5531 4.79451 26.4882 4.76661 26.4133C4.73871 26.3384 4.73055 26.2565 4.74305 26.1768L5.30639 22.5901L2.92095 20.0503C2.8679 19.9939 2.83038 19.9224 2.81261 19.8439C2.79485 19.7654 2.79755 19.683 2.82042 19.6061C2.84329 19.5291 2.88541 19.4607 2.94202 19.4086C2.99862 19.3565 3.06745 19.3227 3.14073 19.3111L6.43742 18.788L7.912 15.5246C7.94851 15.457 8.00051 15.401 8.06288 15.3621C8.12525 15.3232 8.19583 15.3028 8.26765 15.3028C8.33948 15.3028 8.41006 15.3232 8.47243 15.3621C8.5348 15.401 8.5868 15.457 8.62331 15.5246L10.0979 18.788L13.3942 19.3111C13.4675 19.3226 13.5364 19.3564 13.593 19.4085C13.6497 19.4606 13.6919 19.529 13.7148 19.6059C13.7377 19.6828 13.7404 19.7652 13.7227 19.8438C13.7049 19.9223 13.6674 19.9939 13.6144 20.0503L11.2297 22.5901L11.793 26.1768C11.8028 26.239 11.8 26.3027 11.7849 26.3636C11.7698 26.4245 11.7426 26.481 11.7054 26.5293C11.6682 26.5775 11.6218 26.6163 11.5694 26.6429C11.5171 26.6695 11.4596 26.6833 11.4019 26.6834ZM8.45233 24.0669C8.3954 24.0344 8.3321 24.0174 8.26785 24.0175C8.20354 24.0177 8.14063 24.0349 8.08378 24.0678L5.66184 25.4588L6.12441 22.5121C6.1353 22.4429 6.13063 22.3718 6.1108 22.305C6.09096 22.2382 6.05656 22.1777 6.01055 22.1286L4.05118 20.0425L6.75876 19.6131C6.82245 19.603 6.88293 19.576 6.93497 19.5347C6.98701 19.4933 7.02906 19.4387 7.05748 19.3756L8.26785 16.695L9.47902 19.3748C9.50744 19.4378 9.54949 19.4924 9.60153 19.5338C9.65357 19.5752 9.71405 19.6021 9.77774 19.6122L12.4849 20.0417L10.5259 22.1277C10.4799 22.1768 10.4455 22.2373 10.4257 22.3041C10.4059 22.3709 10.4012 22.442 10.4121 22.5112L10.8747 25.4579L8.45233 24.0669Z" fill="#005F5C"/>
<path fill-rule="evenodd" clip-rule="evenodd" d="M59.4976 28.0957C59.4333 28.0958 59.37 28.0787 59.3131 28.0459L56.364 26.3524L53.4144 28.0459C53.3489 28.0835 53.275 28.1004 53.2012 28.0946C53.1274 28.0887 53.0565 28.0605 52.9966 28.013C52.9367 27.9654 52.8902 27.9006 52.8623 27.8257C52.8344 27.7508 52.8263 27.6689 52.8388 27.5892L53.4021 24.0025L51.0167 21.4627C50.9636 21.4063 50.9261 21.3348 50.9083 21.2563C50.8906 21.1777 50.8933 21.0954 50.9161 21.0184C50.939 20.9415 50.9811 20.8731 51.0377 20.821C51.0943 20.7689 51.1632 20.7351 51.2364 20.7234L54.5331 20.2004L56.0077 16.937C56.0442 16.8694 56.0962 16.8134 56.1586 16.7745C56.221 16.7356 56.2916 16.7152 56.3634 16.7152C56.4352 16.7152 56.5058 16.7356 56.5681 16.7745C56.6305 16.8134 56.6825 16.8694 56.719 16.937L58.1936 20.2004L61.4899 20.7234C61.5632 20.735 61.6321 20.7687 61.6888 20.8209C61.7454 20.873 61.7876 20.9413 61.8105 21.0183C61.8334 21.0952 61.8361 21.1776 61.8184 21.2562C61.8007 21.3347 61.7631 21.4063 61.7101 21.4627L59.3254 24.0025L59.8888 27.5892C59.8985 27.6514 59.8957 27.7151 59.8806 27.776C59.8655 27.8369 59.8384 27.8934 59.8011 27.9416C59.7639 27.9899 59.7175 28.0287 59.6652 28.0553C59.6128 28.0819 59.5554 28.0957 59.4976 28.0957ZM56.548 25.4793C56.4911 25.4467 56.4278 25.4298 56.3636 25.4299C56.2993 25.4301 56.2363 25.4473 56.1795 25.4801L53.7576 26.8711L54.2201 23.9245C54.231 23.8553 54.2263 23.7842 54.2065 23.7174C54.1867 23.6506 54.1523 23.59 54.1063 23.541L52.1469 21.4549L54.8545 21.0255C54.9182 21.0153 54.9786 20.9884 55.0307 20.9471C55.0827 20.9057 55.1248 20.8511 55.1532 20.788L56.3636 18.1074L57.5747 20.7871C57.6032 20.8502 57.6452 20.9048 57.6972 20.9462C57.7493 20.9876 57.8098 21.0145 57.8735 21.0246L60.5806 21.454L58.6217 23.5401C58.5757 23.5892 58.5413 23.6497 58.5214 23.7165C58.5016 23.7833 58.4969 23.8544 58.5078 23.9236L58.9704 26.8703L56.548 25.4793Z" fill="#005F5C"/>
</svg>
