<svg width="65" height="65" viewBox="0 0 65 65" fill="none" xmlns="http://www.w3.org/2000/svg">
<path d="M39.7535 47.2371C39.6189 47.2371 39.4897 47.1836 39.3945 47.0883C39.2992 46.9931 39.2457 46.8639 39.2457 46.7293C39.2457 46.5946 39.2992 46.4654 39.3945 46.3702C39.4897 46.2749 39.6189 46.2214 39.7535 46.2214C40.269 46.2097 40.7595 45.9968 41.1199 45.628C41.4803 45.2593 41.6821 44.7642 41.6821 44.2486C41.6821 43.733 41.4803 43.2378 41.1199 42.8691C40.7595 42.5004 40.269 42.2874 39.7535 42.2757H32.7102C32.3461 42.245 31.9917 42.1425 31.6673 41.9744C31.343 41.8062 31.055 41.5755 30.8201 41.2957L30.5581 41.056C28.5471 39.2756 24.1739 39.17 24.1292 39.1689H17.4128C17.2782 39.1689 17.149 39.1154 17.0538 39.0202C16.9585 38.925 16.905 38.7958 16.905 38.6611C16.905 38.5265 16.9585 38.3973 17.0538 38.3021C17.149 38.2068 17.2782 38.1533 17.4128 38.1533H24.1393C24.3425 38.1533 28.9442 38.2701 31.2314 40.2963L31.5128 40.5532C31.983 40.991 32.2928 41.2642 32.7102 41.2642H39.7576C40.5407 41.2786 41.2868 41.5998 41.8354 42.1587C42.3841 42.7176 42.6915 43.4695 42.6915 44.2527C42.6915 45.0358 42.3841 45.7877 41.8354 46.3466C41.2868 46.9055 40.5407 47.2267 39.7576 47.2411L39.7535 47.2371Z" fill="#005F5C"/>
<path d="M34.5404 56.1558C32.4842 56.1561 30.4514 55.7196 28.5766 54.8751L17.2108 49.9584C17.0871 49.9046 16.99 49.8038 16.9406 49.6783C16.8913 49.5528 16.8939 49.4128 16.9477 49.2891C17.0016 49.1655 17.1024 49.0683 17.2279 49.019C17.3534 48.9697 17.4934 48.9722 17.617 49.0261L28.992 53.9458C30.9638 54.8351 33.1207 55.2369 35.2804 55.1172C37.4402 54.9975 39.5394 54.3599 41.4009 53.2582L55.6959 46.8313C56.0089 46.6289 56.2345 46.3163 56.3281 45.9555C56.4217 45.5946 56.3764 45.2118 56.2012 44.8827C56.0261 44.5536 55.7337 44.3023 55.3821 44.1785C55.0304 44.0547 54.6451 44.0674 54.3024 44.2141L40.8281 47.2264C40.7918 47.2345 40.7546 47.2386 40.7174 47.2386H31.9302C31.7955 47.2386 31.6664 47.1851 31.5711 47.0899C31.4759 46.9946 31.4224 46.8655 31.4224 46.7308C31.4224 46.5961 31.4759 46.4669 31.5711 46.3717C31.6664 46.2765 31.7955 46.223 31.9302 46.223H40.6646L53.9876 43.2533C54.3562 43.1031 54.7561 43.0461 55.152 43.0872C55.5479 43.1283 55.9276 43.2662 56.2575 43.4889C56.612 43.7225 56.9012 44.0425 57.0981 44.4186C57.2949 44.7948 57.3928 45.2148 57.3827 45.6392C57.3725 46.0636 57.2546 46.4785 57.04 46.8448C56.8254 47.2111 56.5212 47.5168 56.1559 47.7332L41.863 54.1581C39.6459 55.4696 37.1164 56.1597 34.5404 56.1558Z" fill="#005F5C"/>
<path d="M17.4129 51.0763H8.125C7.99032 51.0763 7.86116 51.0228 7.76592 50.9276C7.67069 50.8324 7.61719 50.7032 7.61719 50.5685V37.0312C7.61719 36.8966 7.67069 36.7674 7.76592 36.6722C7.86116 36.5769 7.99032 36.5234 8.125 36.5234H17.4129C17.5476 36.5234 17.6767 36.5769 17.772 36.6722C17.8672 36.7674 17.9207 36.8966 17.9207 37.0312V50.5685C17.9207 50.7032 17.8672 50.8324 17.772 50.9276C17.6767 51.0228 17.5476 51.0763 17.4129 51.0763ZM8.63281 50.0607H16.9051V37.5391H8.63281V50.0607Z" fill="#005F5C"/>
<path d="M13.7211 51.0765C13.5864 51.0765 13.4572 51.023 13.362 50.9278C13.2668 50.8325 13.2133 50.7034 13.2133 50.5687V37.0314C13.2133 36.8967 13.2668 36.7676 13.362 36.6723C13.4572 36.5771 13.5864 36.5236 13.7211 36.5236C13.8558 36.5236 13.9849 36.5771 14.0802 36.6723C14.1754 36.7676 14.2289 36.8967 14.2289 37.0314V50.5687C14.2289 50.7034 14.1754 50.8325 14.0802 50.9278C13.9849 51.023 13.8558 51.0765 13.7211 51.0765ZM54.6234 31.7776H11.9844C11.8497 31.7776 11.7205 31.7241 11.6253 31.6288C11.5301 31.5336 11.4766 31.4044 11.4766 31.2698V9.32617C11.4766 9.19149 11.5301 9.06233 11.6253 8.96709C11.7205 8.87186 11.8497 8.81836 11.9844 8.81836H54.6234C54.758 8.81836 54.8872 8.87186 54.9824 8.96709C55.0777 9.06233 55.1312 9.19149 55.1312 9.32617V31.2698C55.1312 31.4044 55.0777 31.5336 54.9824 31.6288C54.8872 31.7241 54.758 31.7776 54.6234 31.7776ZM12.4922 30.762H54.1155V9.83398H12.4922V30.762Z" fill="#005F5C"/>
<path d="M47.3282 27.8823H19.2685C19.1338 27.8823 19.0046 27.8288 18.9094 27.7335C18.8142 27.6383 18.7607 27.5091 18.7607 27.3745C18.7612 26.6422 18.4713 25.9396 17.9546 25.4208C17.4379 24.902 16.7365 24.6093 16.0043 24.6069C15.8696 24.6069 15.7404 24.5534 15.6452 24.4581C15.55 24.3629 15.4965 24.2337 15.4965 24.0991V16.4951C15.4965 16.3604 15.55 16.2312 15.6452 16.136C15.7404 16.0408 15.8696 15.9873 16.0043 15.9873C16.7364 15.9851 17.4378 15.6926 17.9546 15.174C18.4713 14.6553 18.7612 13.9528 18.7607 13.2207C18.7607 13.086 18.8142 12.9569 18.9094 12.8616C19.0046 12.7664 19.1338 12.7129 19.2685 12.7129H47.3282C47.4629 12.7129 47.592 12.7664 47.6873 12.8616C47.7825 12.9569 47.836 13.086 47.836 13.2207C47.8333 13.5863 47.9029 13.9488 48.0406 14.2874C48.1784 14.6261 48.3817 14.9342 48.6388 15.194C48.896 15.4539 49.2019 15.6605 49.5391 15.8018C49.8762 15.9432 50.238 16.0165 50.6036 16.0177C50.7383 16.0177 50.8674 16.0712 50.9626 16.1665C51.0579 16.2617 51.1114 16.3909 51.1114 16.5255V24.0991C51.1114 24.2337 51.0579 24.3629 50.9626 24.4581C50.8674 24.5534 50.7383 24.6069 50.6036 24.6069C49.8698 24.6077 49.1663 24.8995 48.6475 25.4184C48.1286 25.9372 47.8368 26.6407 47.836 27.3745C47.836 27.5091 47.7825 27.6383 47.6873 27.7335C47.592 27.8288 47.4629 27.8823 47.3282 27.8823ZM19.7418 26.8666H46.859C46.9715 26.0466 47.3493 25.286 47.9346 24.7008C48.52 24.1156 49.2808 23.7381 50.1008 23.6258V16.9998C49.2748 16.8879 48.5087 16.5067 47.9211 15.9153C47.3336 15.3239 46.9574 14.5553 46.8508 13.7285H19.7428C19.6316 14.5472 19.2557 15.3071 18.6724 15.8922C18.0891 16.4774 17.3304 16.8557 16.5121 16.9694V23.6258C17.3305 23.7393 18.0893 24.1176 18.6726 24.7027C19.256 25.2879 19.6308 26.0479 19.7418 26.8666Z" fill="#005F5C"/>
<path d="M33.3044 24.3257C32.7016 24.3252 32.1237 24.0856 31.6974 23.6594C31.2711 23.2333 31.0312 22.6555 31.0304 22.0527C31.0304 21.9181 31.0839 21.7889 31.1791 21.6937C31.2744 21.5984 31.4035 21.5449 31.5382 21.5449C31.6729 21.5449 31.8021 21.5984 31.8973 21.6937C31.9925 21.7889 32.046 21.9181 32.046 22.0527C32.0553 22.3802 32.1919 22.691 32.4268 22.9193C32.6617 23.1476 32.9763 23.2754 33.3039 23.2754C33.6314 23.2754 33.9461 23.1476 34.181 22.9193C34.4158 22.691 34.5524 22.3802 34.5617 22.0527C34.5617 21.5266 34.0011 21.2108 33.0779 20.7517C32.1182 20.2754 31.0304 19.7361 31.0304 18.5427C31.024 18.2401 31.0781 17.9393 31.1895 17.6579C31.3009 17.3765 31.4673 17.1201 31.679 16.9038C31.8908 16.6876 32.1436 16.5157 32.4226 16.3984C32.7016 16.2811 33.0012 16.2207 33.3039 16.2207C33.6066 16.2207 33.9062 16.2811 34.1852 16.3984C34.4642 16.5157 34.717 16.6876 34.9287 16.9038C35.1405 17.1201 35.3069 17.3765 35.4183 17.6579C35.5297 17.9393 35.5838 18.2401 35.5774 18.5427C35.5774 18.6774 35.5239 18.8066 35.4286 18.9018C35.3334 18.9971 35.2042 19.0506 35.0696 19.0506C34.9349 19.0506 34.8057 18.9971 34.7105 18.9018C34.6152 18.8066 34.5617 18.6774 34.5617 18.5427C34.5665 18.3746 34.5375 18.2071 34.4765 18.0503C34.4154 17.8935 34.3235 17.7506 34.2062 17.6299C34.089 17.5093 33.9487 17.4134 33.7937 17.3479C33.6387 17.2824 33.4722 17.2486 33.3039 17.2486C33.1356 17.2486 32.9691 17.2824 32.8141 17.3479C32.6591 17.4134 32.5188 17.5093 32.4015 17.6299C32.2843 17.7506 32.1924 17.8935 32.1313 18.0503C32.0703 18.2071 32.0413 18.3746 32.046 18.5427C32.046 19.0668 32.6067 19.3837 33.5299 19.8417C34.4896 20.3191 35.5774 20.8574 35.5774 22.0527C35.5766 22.6553 35.3368 23.233 34.9107 23.6591C34.4846 24.0852 33.907 24.3249 33.3044 24.3257Z" fill="#005F5C"/>
<path d="M33.3043 17.2847C33.1696 17.2847 33.0405 17.2312 32.9452 17.136C32.85 17.0407 32.7965 16.9116 32.7965 16.7769V15.5703C32.7965 15.4356 32.85 15.3065 32.9452 15.2112C33.0405 15.116 33.1696 15.0625 33.3043 15.0625C33.439 15.0625 33.5682 15.116 33.6634 15.2112C33.7586 15.3065 33.8121 15.4356 33.8121 15.5703V16.7769C33.8121 16.9116 33.7586 17.0407 33.6634 17.136C33.5682 17.2312 33.439 17.2847 33.3043 17.2847ZM33.3043 25.5326C33.1696 25.5326 33.0405 25.4791 32.9452 25.3838C32.85 25.2886 32.7965 25.1594 32.7965 25.0248V23.8182C32.7965 23.6835 32.85 23.5544 32.9452 23.4591C33.0405 23.3639 33.1696 23.3104 33.3043 23.3104C33.439 23.3104 33.5682 23.3639 33.6634 23.4591C33.7586 23.5544 33.8121 23.6835 33.8121 23.8182V25.0248C33.8121 25.1594 33.7586 25.2886 33.6634 25.3838C33.5682 25.4791 33.439 25.5326 33.3043 25.5326Z" fill="#005F5C"/>
</svg>
