<svg width="256" height="256" viewBox="0 0 256 256" fill="none" xmlns="http://www.w3.org/2000/svg">
<g clip-path="url(#clip0_921_13)">
<path fill-rule="evenodd" clip-rule="evenodd" d="M22.2177 178.394C9.08309 130.7 2.42265 99.1213 32.8371 58.5532C44.1086 43.5556 55.4267 32.9827 73.4052 23.0619C81.4629 18.4509 90.4522 15.47 100.606 12.9083C107.499 11.2781 110.76 9.92737 113.042 8.2972C116.721 5.78207 114.905 -0.226301 110.294 0.00658187C59.1062 3.22036 16.2093 53.7093 4.7049 95.4418C-12.8079 158.599 26.1301 223.341 70.8435 236.941C140.01 257.901 190.033 181.841 148.999 135.544C120.867 103.732 54.4951 97.724 64.8817 60.1834C69.4928 43.3693 80.9972 45.4186 94.8304 44.9529C97.1126 44.9529 98.9757 42.8569 99.2086 40.5747C99.2086 38.0596 97.1126 35.9636 94.8304 35.9636C74.3367 35.9636 54.9609 40.5747 51.7471 67.5425C43.6894 133.215 145.086 125.623 148.3 178.162C150.582 216.168 107.266 242.717 69.9585 226.089C13.7407 200.984 40.7085 162.698 46.2045 145.651C47.6018 141.506 42.525 138.059 39.0783 140.807C29.5767 148.213 25.6643 173.783 22.2177 178.394Z" fill="#005F5C"/>
<path fill-rule="evenodd" clip-rule="evenodd" d="M160.504 205.827C217.42 201.449 244.621 120.779 176.619 83.0053C157.476 72.3859 116.442 56.7362 117.607 32.9822C119.237 -4.60504 171.077 16.4009 188.822 26.7409C230.322 51.3799 264.882 114.072 233.536 177.695C194.831 256.503 124.267 239.456 96.4146 243.834C92.9679 244.3 92.5022 249.377 95.9488 250.541C160.271 272.898 222.264 221.71 241.128 185.101C275.687 117.798 242.758 51.6593 201.258 22.5956C122.265 -32.7372 66.233 39.1768 134.933 86.2191C157.756 101.869 192.316 110.672 200.14 135.776C216.07 185.101 152.679 191.529 160.504 205.827Z" fill="#005F5C"/>
<path fill-rule="evenodd" clip-rule="evenodd" d="M138.146 198.701C134.001 194.788 123.148 192.46 117.187 189.246C91.3833 175.645 86.5394 159.064 89.5203 132.795C89.7531 130.699 88.8216 128.883 87.0051 127.718C84.2571 126.088 80.531 127.485 79.4132 130.699C74.3363 146.582 80.3447 170.336 88.1695 180.955C93.7121 188.081 114.672 203.079 130.787 205.408C133.069 205.641 136.795 204.476 137.68 202.194V198.747L138.146 198.701Z" fill="#005F5C"/>
</g>
<defs>
<clipPath id="clip0_921_13">
<rect width="256" height="256" fill="white"/>
</clipPath>
</defs>
</svg>
